<?xml version="1.0" encoding="UTF-8" standalone="no"?>
<!-- Created with Inkscape (http://www.inkscape.org/) -->

<svg
   width="557.81268"
   height="556.18127"
   viewBox="0 0 557.81268 556.18127"
   version="1.1"
   id="svg1"
   inkscape:version="1.4.3 (0d15f75042, 2025-12-25)"
   xml:space="preserve"
   sodipodi:docname="buttons.svg"
   xmlns:inkscape="http://www.inkscape.org/namespaces/inkscape"
   xmlns:sodipodi="http://sodipodi.sourceforge.net/DTD/sodipodi-0.dtd"
   xmlns="http://www.w3.org/2000/svg"
   xmlns:svg="http://www.w3.org/2000/svg"><sodipodi:namedview
     id="namedview1"
     pagecolor="#3a3a3a"
     bordercolor="#a6a6a6"
     borderopacity="1"
     inkscape:showpageshadow="0"
     inkscape:pageopacity="0"
     inkscape:pagecheckerboard="1"
     inkscape:deskcolor="#1a1a1a"
     inkscape:document-units="px"
     guidecolor="#91a666"
     guideopacity="0.6"
     guidehicolor="#a66966"
     guidehiopacity="0.49803922"
     inkscape:zoom="0.43343026"
     inkscape:cx="-48.450701"
     inkscape:cy="140.73775"
     inkscape:window-width="1432"
     inkscape:window-height="876"
     inkscape:window-x="0"
     inkscape:window-y="0"
     inkscape:window-maximized="1"
     inkscape:current-layer="g40" /><defs
     id="defs1"><inkscape:path-effect
       effect="perspective-envelope"
       up_left_point="762.78421,355.0786"
       up_right_point="795.16421,359.27463"
       down_left_point="764.88222,392.85347"
       down_right_point="794.26507,403.94295"
       id="path-effect72"
       is_visible="true"
       lpeversion="1"
       deform_type="perspective"
       horizontal_mirror="false"
       vertical_mirror="false"
       overflow_perspective="false" /><clipPath
       clipPathUnits="userSpaceOnUse"
       id="clipPath1397"><path
         style="fill:#545a78;fill-opacity:1;stroke:#1a1a1a;stroke-width:47.6348;stroke-linecap:round;stroke-linejoin:round;stroke-dasharray:none;stroke-opacity:1"
         d="M 1323.596,-16.160101 V 995.39713 H 577.70436 V -14.01733 Z"
         id="path1397" /></clipPath></defs><g
     inkscape:label="Layer 1"
     inkscape:groupmode="layer"
     id="layer1"
     transform="translate(466.10365,-65.63307)"><g
       id="g39"><rect
         style="opacity:1;fill:#b3b3b3;fill-opacity:0.624367;stroke:#1a1a1a;stroke-width:8.84885;stroke-linecap:round;stroke-linejoin:round;stroke-dasharray:none"
         id="rect4"
         width="247.15115"
         height="247.15115"
         x="-159.86653"
         y="370.23877"
         ry="10.885338" /><path
         style="fill:#333333;fill-opacity:1;stroke:#333333;stroke-width:3;stroke-linecap:round;stroke-linejoin:round;stroke-dasharray:none;stroke-opacity:1"
         d="m -93.564129,513.73031 c 0,0 13.05136,-15.39652 13.45921,-15.39652 0.40786,0 32.32251,-17.33384 32.32251,-17.33384 l 19.16919,-5.30212 c 0,0 24.2673705,-2.85498 24.6752205,-2.95694 0.40786,-0.10197 34.7696395,-4.18052 34.7696395,-4.18052 l 13.35725,1.52946 -9.48263,20.49471 -29.6714495,11.11405 -54.5506005,-10.09441 -33.13822,17.33384 -8.25906,12.74546 z"
         id="path8" /><path
         style="fill:none;stroke:#1a1a1a;stroke-width:9;stroke-linecap:round;stroke-linejoin:round;stroke-dasharray:none"
         d="m -87.50603,530.30817 6.93353,-14.071 31.40484,-14.88671 55.06042,10.4003 c 0,0 30.79305,-12.43957 32.83233,-12.23565 2.03927,0.20393 18.96525,-31.60876 18.96525,-31.60876 l -36.29909,-64.84894 -41.39728,0.40785 -24.87916,29.77342 -17.12991,32.22054 -34.05589,16.72206 -17.74169,-1.83535 z"
         id="path4" /><path
         style="fill:none;stroke:#1a1a1a;stroke-width:9;stroke-linecap:round;stroke-linejoin:round;stroke-dasharray:none"
         d="M -80.36857,515.21753 -94.84742,481.16164"
         id="path5" /><path
         style="fill:#333333;fill-opacity:1;stroke:#1a1a1a;stroke-width:9;stroke-linecap:round;stroke-linejoin:round;stroke-dasharray:none;stroke-opacity:1"
         d="m -98.8176,533.38159 -14.56405,29.2723 4.18176,13.84306 8.21932,3.31657 c 0,0 16.15023,-6.05634 16.00603,-7.35413 -0.1442,-1.29779 0.1442,-17.01542 0.1442,-17.01542 z"
         id="path7" /><rect
         style="fill:#1a1a1a;fill-opacity:1;stroke:#1a1a1a;stroke-width:8.43804;stroke-linecap:round;stroke-linejoin:round;stroke-dasharray:none;stroke-opacity:1"
         id="rect5"
         width="39.561958"
         height="39.561958"
         x="140.03094"
         y="408.60599"
         ry="2.0616503"
         transform="rotate(20.547248)" /><path
         style="fill:#000000;fill-opacity:0;stroke:#333333;stroke-width:9;stroke-linecap:round;stroke-linejoin:round;stroke-dasharray:none;stroke-opacity:1"
         d="m -4.20165,471.47508 16.51813,-20.18882 -23.45167,0.91768"
         id="path6" /></g><g
       id="g40"><rect
         style="fill:#b4b4b4;fill-opacity:0.623529;stroke:#1a1a1a;stroke-width:8.84885;stroke-linecap:round;stroke-linejoin:round;stroke-dasharray:none"
         id="rect3"
         width="247.15115"
         height="247.15115"
         x="-461.67923"
         y="370.23877"
         ry="10.885338"
         inkscape:export-filename="salt.webp"
         inkscape:export-xdpi="1536"
         inkscape:export-ydpi="1536" /><path
         style="fill:#666666;fill-opacity:1;stroke:#1a1a1a;stroke-width:9;stroke-linecap:round;stroke-linejoin:round;stroke-dasharray:none;stroke-opacity:1"
         d="m -338.61973,529.63243 19.89939,-31.72367 29.5607,-21.34138 7.57963,8.06952 -26.30665,19.57704 -21.82024,33.85196 z"
         id="path9" /><path
         style="fill:#666666;fill-opacity:1;stroke:#1a1a1a;stroke-width:9;stroke-linecap:round;stroke-linejoin:round;stroke-dasharray:none;stroke-opacity:1"
         d="m -330.31868,537.04626 18.5574,9.78852 20.8006,-9.58459 18.96526,-22.83988 -0.81571,-22.02417 -8.97281,-9.38066 -28.75378,21.82024 z"
         id="path10" /><path
         style="fill:#333333;fill-opacity:1;stroke:#1a1a1a;stroke-width:9;stroke-linecap:round;stroke-linejoin:round;stroke-dasharray:none;stroke-opacity:1"
         d="m -340.06172,528.47884 -69.38083,-43.23016 -5.70997,-27.93807 43.43656,-48.33081 30.99697,2.03927 53.42901,64.44109 -32.01662,20.80061 z"
         id="path11" /><path
         style="opacity:1;fill:none;fill-opacity:1;stroke:#1a1a1a;stroke-width:7;stroke-linecap:round;stroke-linejoin:round;stroke-dasharray:none;stroke-opacity:1"
         d="m -328.38163,506.99326 -78.1556,-58.83299 27.97451,-30.57008 69.79209,70.36887 -12.11268,10.0939 z"
         id="path14" /><ellipse
         style="opacity:1;fill:#333333;fill-opacity:1;stroke:#333333;stroke-width:3.19847;stroke-linecap:round;stroke-linejoin:round;stroke-dasharray:none;stroke-opacity:1"
         id="ellipse15"
         cx="-302.35327"
         cy="518.33832"
         rx="1.2518698"
         ry="1.5813092" /><ellipse
         style="opacity:1;fill:#333333;fill-opacity:1;stroke:#333333;stroke-width:3.19847;stroke-linecap:round;stroke-linejoin:round;stroke-dasharray:none;stroke-opacity:1"
         id="ellipse16"
         cx="-295.0119"
         cy="509.97729"
         rx="1.2518698"
         ry="1.5813092" /><ellipse
         style="opacity:1;fill:#333333;fill-opacity:1;stroke:#333333;stroke-width:3.19847;stroke-linecap:round;stroke-linejoin:round;stroke-dasharray:none;stroke-opacity:1"
         id="ellipse18"
         cx="-284.6116"
         cy="513.85193"
         rx="1.2518698"
         ry="1.5813092" /><ellipse
         style="opacity:1;fill:#333333;fill-opacity:1;stroke:#333333;stroke-width:3.19847;stroke-linecap:round;stroke-linejoin:round;stroke-dasharray:none;stroke-opacity:1"
         id="ellipse19"
         cx="-292.36084"
         cy="523.02863"
         rx="1.2518698"
         ry="1.5813092" /><ellipse
         style="opacity:1;fill:#333333;fill-opacity:1;stroke:#333333;stroke-width:3.19847;stroke-linecap:round;stroke-linejoin:round;stroke-dasharray:none;stroke-opacity:1"
         id="ellipse20"
         cx="-300.41599"
         cy="530.16608"
         rx="1.2518698"
         ry="1.5813092" /><ellipse
         style="opacity:1;fill:#666666;fill-opacity:1;stroke:#1a1a1a;stroke-width:5.76947;stroke-linecap:round;stroke-linejoin:round;stroke-dasharray:none;stroke-opacity:1"
         id="ellipse21"
         cx="-272.37537"
         cy="556.45538"
         rx="2.2581508"
         ry="2.852401" /><ellipse
         style="opacity:1;fill:#666666;fill-opacity:1;stroke:#1a1a1a;stroke-width:5.76947;stroke-linecap:round;stroke-linejoin:round;stroke-dasharray:none;stroke-opacity:1"
         id="ellipse22"
         cx="-259.13284"
         cy="541.3736"
         rx="2.2581508"
         ry="2.852401" /><ellipse
         style="opacity:1;fill:#666666;fill-opacity:1;stroke:#1a1a1a;stroke-width:5.76947;stroke-linecap:round;stroke-linejoin:round;stroke-dasharray:none;stroke-opacity:1"
         id="ellipse23"
         cx="-240.37256"
         cy="548.36273"
         rx="2.2581508"
         ry="2.852401" /><ellipse
         style="opacity:1;fill:#666666;fill-opacity:1;stroke:#1a1a1a;stroke-width:5.76947;stroke-linecap:round;stroke-linejoin:round;stroke-dasharray:none;stroke-opacity:1"
         id="ellipse24"
         cx="-254.3508"
         cy="564.91589"
         rx="2.2581508"
         ry="2.852401" /><ellipse
         style="opacity:1;fill:#666666;fill-opacity:1;stroke:#1a1a1a;stroke-width:5.76947;stroke-linecap:round;stroke-linejoin:round;stroke-dasharray:none;stroke-opacity:1"
         id="ellipse25"
         cx="-268.88083"
         cy="577.79059"
         rx="2.2581508"
         ry="2.852401" /></g><g
       id="g38"><rect
         style="fill:#b4b4b4;fill-opacity:0.623529;stroke:#1a1a1a;stroke-width:8.84885;stroke-linecap:round;stroke-linejoin:round;stroke-dasharray:none"
         id="rect2"
         width="247.15115"
         height="247.15115"
         x="-159.86653"
         y="70.057495"
         ry="10.885338" /><path
         style="fill:#333333;fill-opacity:1;stroke:#1a1a1a;stroke-width:9;stroke-linecap:round;stroke-linejoin:round;stroke-dasharray:none;stroke-opacity:1"
         d="m 7.1795896,143.56498 31.0026804,-13.69886 15.71764,-10.23809 7.35412,1.00939 7.64253,-11.82428 -9.8055,-11.96848 -59.69819037,29.99329 z"
         id="path12" /><path
         style="fill:#666666;fill-opacity:1;stroke:#1a1a1a;stroke-width:9;stroke-linecap:round;stroke-linejoin:round;stroke-dasharray:none;stroke-opacity:1"
         d="m 6.5045396,146.51662 -1.83535,12.43958 -85.2416896,39.358 -46.49547,2.03928 c 0,0 127.25075963,-72.39426 126.84289963,-70.96677 -0.40785,1.42749 6.72960997,17.12991 6.72960997,17.12991 z"
         id="path13" /><path
         style="opacity:1;fill:#333333;fill-opacity:1;stroke:#1a1a1a;stroke-width:8;stroke-linecap:round;stroke-linejoin:round;stroke-dasharray:none;stroke-opacity:1"
         d="M -102.56404,293.91591 H 58.783287 l 13.80512,-12.9423 -1.725641,-23.72755 -17.687809,-18.55062 -159.405987,0.43141 c 0.86282,0 -20.27627,18.11921 -20.27627,18.11921 l 0.86282,23.29614 z"
         id="path25"
         sodipodi:nodetypes="ccccccccc" /><path
         style="opacity:1;fill:#666666;fill-opacity:1;stroke:#1a1a1a;stroke-width:8;stroke-linecap:round;stroke-linejoin:round;stroke-dasharray:none;stroke-opacity:1"
         d="m -124.41691,271.7281 196.58611,-0.81571 1.22356,11.01209 c 0,0 -14.68278,13.86707 -16.72205,13.45921 -2.03928,-0.40785 -159.47131,-1.52945 -159.47131,-1.52945 l -22.83988,-13.45922 z"
         id="path26"
         sodipodi:nodetypes="cccsccc" /><path
         style="opacity:1;fill:#666666;fill-opacity:1;stroke:#585858;stroke-width:4;stroke-linecap:round;stroke-linejoin:round;stroke-dasharray:none;stroke-opacity:1"
         d="M -103.20845,255.4139 50.552885,255.00605"
         id="path27"
         sodipodi:nodetypes="cc" /></g><g
       id="g37"><rect
         style="fill:#b4b4b4;fill-opacity:0.623529;stroke:#1a1a1a;stroke-width:8.84885;stroke-linecap:round;stroke-linejoin:round;stroke-dasharray:none"
         id="rect1"
         width="247.15115"
         height="247.15115"
         x="-461.67923"
         y="70.057495"
         ry="10.885338" /><g
         id="g31"
         transform="matrix(0.62934208,0,0,0.62934208,-153.74538,111.18606)"><path
           style="opacity:1;fill:#626262;fill-opacity:1;stroke:#1d1d1d;stroke-width:9;stroke-linecap:round;stroke-linejoin:round;stroke-dasharray:none;stroke-opacity:1"
           d="m -330.19843,274.992 -39.1541,-32.22054 -21.20842,-47.71903 1.22357,-59.13898 35.07555,12.23565 32.2205,54.24472 7.28451,47.37356 z"
           id="path29"
           sodipodi:nodetypes="cccccccc" /><path
           style="opacity:1;fill:#333333;fill-opacity:1;stroke:#1d1d1d;stroke-width:9;stroke-linecap:round;stroke-linejoin:round;stroke-dasharray:none;stroke-opacity:1"
           d="m -328.95843,274.54526 c -2.5956,2.01878 -61.71696,24.22531 -61.71696,24.22531 l -34.60764,-24.51371 -26.82093,-52.19986 5.47955,-49.60429 c 0,0 58.54459,-38.3568 57.39101,-36.62642 -1.15359,1.73038 -2.30718,53.06505 -2.30718,53.06505 l 25.37895,57.67941 z"
           id="path30" /><path
           style="opacity:1;fill:#333333;fill-opacity:1;stroke:#1d1d1d;stroke-width:9;stroke-linecap:round;stroke-linejoin:round;stroke-dasharray:none;stroke-opacity:1"
           d="m -344.96443,228.97853 -20.0436,-18.60161 -0.8652,-31.86787 19.1784,13.41046 8.2193,25.23474 z"
           id="path31" /></g><path
         style="fill:#333333;fill-opacity:1;stroke:#1a1a1a;stroke-width:9;stroke-linecap:round;stroke-linejoin:round;stroke-dasharray:none;stroke-opacity:1"
         d="m -359.99156,149.87334 -13.00053,-31.30194 -4.3197,-18.25385 -6.02124,-4.34127 2.62141,-13.83293 15.35478,-1.903337 22.54027,62.892037 z"
         id="path32" /><path
         style="fill:#666666;fill-opacity:1;stroke:#1a1a1a;stroke-width:9;stroke-linecap:round;stroke-linejoin:round;stroke-dasharray:none;stroke-opacity:1"
         d="m -361.53853,152.47618 -7.25069,10.27322 34.57714,87.29042 32.26037,33.54483 c 0,0 -42.21016,-140.18554 -42.89938,-138.8706 -0.68923,1.31492 -16.68744,7.76213 -16.68744,7.76213 z"
         id="path33" /><g
         id="g36"
         transform="matrix(-0.4762517,0.41140706,0.41140706,0.4762517,-540.15062,262.39342)"><path
           style="opacity:1;fill:#626262;fill-opacity:1;stroke:#1d1d1d;stroke-width:9;stroke-linecap:round;stroke-linejoin:round;stroke-dasharray:none;stroke-opacity:1"
           d="m -330.19843,274.992 -39.1541,-32.22054 -21.20842,-47.71903 1.22357,-59.13898 35.07555,12.23565 32.2205,54.24472 7.28451,47.37356 z"
           id="path34"
           sodipodi:nodetypes="cccccccc" /><path
           style="opacity:1;fill:#333333;fill-opacity:1;stroke:#1d1d1d;stroke-width:9;stroke-linecap:round;stroke-linejoin:round;stroke-dasharray:none;stroke-opacity:1"
           d="m -328.95843,274.54526 c -2.5956,2.01878 -61.71696,24.22531 -61.71696,24.22531 l -34.60764,-24.51371 -26.82093,-52.19986 5.47955,-49.60429 c 0,0 58.54459,-38.3568 57.39101,-36.62642 -1.15359,1.73038 -2.30718,53.06505 -2.30718,53.06505 l 25.37895,57.67941 z"
           id="path35" /><path
           style="opacity:1;fill:#333333;fill-opacity:1;stroke:#1d1d1d;stroke-width:9;stroke-linecap:round;stroke-linejoin:round;stroke-dasharray:none;stroke-opacity:1"
           d="m -344.96443,228.97853 -20.0436,-18.60161 -0.8652,-31.86787 19.1784,13.41046 8.2193,25.23474 z"
           id="path36" /></g></g></g></svg>
