<?xml version="1.0" encoding="UTF-8" standalone="no"?>
<!-- Created with Inkscape (http://www.inkscape.org/) -->

<svg
   width="557.81268"
   height="556.18127"
   viewBox="0 0 557.81268 556.18127"
   version="1.1"
   id="svg1"
   inkscape:version="1.4.3 (0d15f75042, 2025-12-25)"
   xml:space="preserve"
   sodipodi:docname="hands_anims.svg"
   xmlns:inkscape="http://www.inkscape.org/namespaces/inkscape"
   xmlns:sodipodi="http://sodipodi.sourceforge.net/DTD/sodipodi-0.dtd"
   xmlns="http://www.w3.org/2000/svg"
   xmlns:svg="http://www.w3.org/2000/svg"><sodipodi:namedview
     id="namedview1"
     pagecolor="#3a3a3a"
     bordercolor="#a6a6a6"
     borderopacity="1"
     inkscape:showpageshadow="0"
     inkscape:pageopacity="0"
     inkscape:pagecheckerboard="1"
     inkscape:deskcolor="#1a1a1a"
     inkscape:document-units="px"
     guidecolor="#91a666"
     guideopacity="0.6"
     guidehicolor="#a66966"
     guidehiopacity="0.49803922"
     inkscape:zoom="2"
     inkscape:cx="353.25"
     inkscape:cy="160"
     inkscape:window-width="1432"
     inkscape:window-height="876"
     inkscape:window-x="0"
     inkscape:window-y="0"
     inkscape:window-maximized="1"
     inkscape:current-layer="layer1" /><defs
     id="defs1"><inkscape:path-effect
       effect="perspective-envelope"
       up_left_point="762.78421,355.0786"
       up_right_point="795.16421,359.27463"
       down_left_point="764.88222,392.85347"
       down_right_point="794.26507,403.94295"
       id="path-effect72"
       is_visible="true"
       lpeversion="1"
       deform_type="perspective"
       horizontal_mirror="false"
       vertical_mirror="false"
       overflow_perspective="false" /><clipPath
       clipPathUnits="userSpaceOnUse"
       id="clipPath1397"><path
         style="fill:#545a78;fill-opacity:1;stroke:#1a1a1a;stroke-width:47.6348;stroke-linecap:round;stroke-linejoin:round;stroke-dasharray:none;stroke-opacity:1"
         d="M 1323.596,-16.160101 V 995.39713 H 577.70436 V -14.01733 Z"
         id="path1397" /></clipPath></defs><g
     inkscape:label="Layer 1"
     inkscape:groupmode="layer"
     id="layer1"
     transform="translate(466.10365,-65.63307)"><g
       id="g44"
       transform="matrix(0.31111079,-0.40022558,0.40022558,0.31111079,-314.50553,283.35336)"
       inkscape:export-filename="g44.webp"
       inkscape:export-xdpi="88.923286"
       inkscape:export-ydpi="88.923286"><path
         style="fill:#5b311f;fill-opacity:1;stroke:#1a1a1a;stroke-width:11.8361;stroke-linecap:round;stroke-linejoin:round;stroke-dasharray:none;stroke-opacity:1"
         d="m 354.69961,275.14276 46.85318,17.93937 27.18754,5.63551 6.67281,8.72928 20.35883,-4.45155 2.18028,-22.79799 -93.9894,-30.7462 z"
         id="path12-9" /><path
         style="fill:#666666;fill-opacity:1;stroke:#1a1a1a;stroke-width:11.8361;stroke-linecap:round;stroke-linejoin:round;stroke-dasharray:none;stroke-opacity:1"
         d="m 350.91248,277.53947 -14.9001,11.15369 -130.5881,-47.54567 -50.96945,-46.34361 c 0,0 209.16855,56.64891 207.2515,57.72315 -1.91704,1.07425 -10.79385,25.01244 -10.79385,25.01244 z"
         id="path13-1" /><path
         style="fill:#fdb786;fill-opacity:1;stroke:#1a1a1a;stroke-width:11.8361;stroke-linecap:round;stroke-linejoin:round;stroke-dasharray:none"
         d="m 499.77903,336.9447 c 0,0 -26.821,1.44198 -30.8585,1.44198 -4.0376,0 -49.6043,-11.24748 -50.7579,-11.24748 -1.1536,0 -27.9745,-13.55466 -27.9745,-13.55466 l -0.8652,-24.08116 19.8994,0.4326 20.332,8.21932 9.0845,-3.46077 -13.09225,-27.26508 -9.89081,-8.80079 1.24716,7.43144 c 0,0 -41.7032,-10.70619 -41.6012,-11.92976 0.102,-1.22356 19.679,-33.75 19.679,-33.75 l 49.5544,12.13369 -22.9419,-8.76888 c 0,0 30.997,-9.38067 31.4049,-9.07478 0.4078,0.30589 12.6435,10.09441 12.8474,9.5846 0.2039,-0.50982 -6.1178,-7.34139 -6.1178,-7.34139 l 18.3535,-0.71375 7.9989,9.56781 -3.4608,-6.48893 8.7171,2.42716 53.8369,56.69185 142.6451,75.13021 -53.22502,64.84895 C 624.93448,405.73529 511.85156,347.30787 499.77903,336.9447 Z"
         id="path1"
         sodipodi:nodetypes="cssccccccccscccssccccccccc" /></g><g
       id="g21"
       transform="matrix(0.65029416,0,0,0.65029416,-677.90779,1060.1185)"
       style="stroke-width:9.2265937;stroke-dasharray:none"
       inkscape:export-filename="g21.webp"
       inkscape:export-xdpi="109.90585"
       inkscape:export-ydpi="109.90585"><g
         id="g3"
         transform="rotate(-121.43865,-355.26062,-422.6275)"
         inkscape:export-filename="g3.webp"
         inkscape:export-xdpi="158.44609"
         inkscape:export-ydpi="158.44609"
         style="stroke-width:9.2265937;stroke-dasharray:none"><g
           id="g40"
           style="stroke-width:9.2265937;stroke-dasharray:none"><path
             style="fill:#666666;fill-opacity:1;stroke:#1a1a1a;stroke-width:9.2265937;stroke-linecap:round;stroke-linejoin:round;stroke-dasharray:none;stroke-opacity:1"
             d="m -307.90588,468.67056 -36.97885,5.91112 -35.52616,-8.19641 1.08267,-11.01797 32.05567,6.90901 39.84544,-5.86678 z"
             id="path9-3" /><path
             style="fill:#666666;fill-opacity:1;stroke:#1a1a1a;stroke-width:9.2265937;stroke-linecap:round;stroke-linejoin:round;stroke-dasharray:none;stroke-opacity:1"
             d="m -307.7917,457.54135 -4.85174,-20.41208 -20.90961,-9.34438 -29.67754,0.76475 -16.03905,15.1155 -1.15216,12.92983 35.35526,7.2738 z"
             id="path10-5" /><path
             style="fill:#9297b3;fill-opacity:1;stroke:#1a1a1a;stroke-width:9.2265937;stroke-linecap:round;stroke-linejoin:round;stroke-dasharray:none;stroke-opacity:1"
             d="m -307.82465,470.51541 13.14652,80.68281 -17.26748,22.69303 -64.97574,-0.86898 -18.87478,-24.67211 13.32085,-82.64302 36.73623,10.40088 z"
             id="path11-6" /><path
             style="opacity:1;fill:none;fill-opacity:1;stroke:#1a1a1a;stroke-width:9.2265937;stroke-linecap:round;stroke-linejoin:round;stroke-dasharray:none;stroke-opacity:1"
             d="m -331.68605,475.87151 7.18094,97.56051 -41.4276,-0.92605 7.00822,-98.86151 15.57247,2.4702 z"
             id="path14-2" /><ellipse
             style="opacity:1;fill:#333333;fill-opacity:1;stroke:#333333;stroke-width:4.92085027;stroke-linecap:round;stroke-linejoin:round;stroke-dasharray:none;stroke-opacity:1"
             id="ellipse15-9"
             cx="-113.73396"
             cy="-551.62549"
             rx="1.2518698"
             ry="1.5813092"
             transform="rotate(-131.18091)" /><ellipse
             style="opacity:1;fill:#333333;fill-opacity:1;stroke:#333333;stroke-width:4.92085027;stroke-linecap:round;stroke-linejoin:round;stroke-dasharray:none;stroke-opacity:1"
             id="ellipse16-1"
             cx="-106.39259"
             cy="-559.98651"
             rx="1.2518698"
             ry="1.5813092"
             transform="rotate(-131.18091)" /><ellipse
             style="opacity:1;fill:#333333;fill-opacity:1;stroke:#333333;stroke-width:4.92085027;stroke-linecap:round;stroke-linejoin:round;stroke-dasharray:none;stroke-opacity:1"
             id="ellipse18-2"
             cx="-95.992294"
             cy="-556.11188"
             rx="1.2518698"
             ry="1.5813092"
             transform="rotate(-131.18091)" /><ellipse
             style="opacity:1;fill:#333333;fill-opacity:1;stroke:#333333;stroke-width:4.92085027;stroke-linecap:round;stroke-linejoin:round;stroke-dasharray:none;stroke-opacity:1"
             id="ellipse19-7"
             cx="-103.74153"
             cy="-546.93518"
             rx="1.2518698"
             ry="1.5813092"
             transform="rotate(-131.18091)" /><ellipse
             style="opacity:1;fill:#333333;fill-opacity:1;stroke:#333333;stroke-width:4.92085027;stroke-linecap:round;stroke-linejoin:round;stroke-dasharray:none;stroke-opacity:1"
             id="ellipse20-0"
             cx="-111.79668"
             cy="-539.79773"
             rx="1.2518698"
             ry="1.5813092"
             transform="rotate(-131.18091)" /></g></g><path
         style="fill:#fdb786;fill-opacity:1;stroke:#1a1a1a;stroke-width:9.2265937;stroke-linecap:round;stroke-linejoin:round;stroke-dasharray:none"
         d="m 513.92191,-852.41504 c -36.65176,-7.5963 -73.8323,-14.8428 -73.8323,-14.8428 0,0 34.41219,-24.85872 26.20945,-42.21214 l -5.32832,-29.77248 -7.17862,-11.12427 -0.78454,7.49441 c 0,0 -37.3243,-21.46338 -36.89897,-22.61517 0.42533,-1.15178 27.98395,-27.26214 27.98395,-27.26214 l 44.5083,24.93746 -19.76341,-14.5819 c 0,0 32.37657,-0.75429 32.68787,-0.35051 0.3112,0.40376 9.48539,13.10659 9.81814,12.66983 0.33275,-0.43678 -3.93296,-8.7095 -3.93296,-8.7095 l 17.87652,4.21786 5.15053,11.35771 -1.60049,-7.17787 7.7512,4.66882 36.72519,69.01911 117.37395,110.52388 -68.6218,48.26322 c -5.92857,-14.76335 -99.28034,-101.29056 -108.14369,-114.50352 z"
         id="path21"
         sodipodi:nodetypes="ccccccscccssccccccccc" /></g><g
       id="g46"
       transform="matrix(0.62433918,0,0,0.62433918,-627.01743,69.659951)"
       style="stroke-width:9.61016094;stroke-dasharray:none"
       inkscape:export-filename="g46.webp"
       inkscape:export-xdpi="117.81463"
       inkscape:export-ydpi="117.81463"><g
         id="g2"
         inkscape:export-filename="g2.webp"
         inkscape:export-xdpi="147.05948"
         inkscape:export-ydpi="147.05948"
         transform="rotate(-121.7454,466.34343,312.66349)"
         style="stroke-width:9.61016094;stroke-dasharray:none"><g
           id="g39-6"
           transform="rotate(118.55476,-28.007811,491.72153)"
           style="stroke-width:9.61016094;stroke-dasharray:none"><path
             id="path8-2"
             style="fill:#b1975b;fill-opacity:1;stroke:#b1975b;stroke-width:9.61016094;stroke-linecap:round;stroke-linejoin:round;stroke-dasharray:none;stroke-opacity:1"
             d="m -49.516895,491.6039 54.5530118,10.09506 29.6695662,-11.11398 8.929589,-19.29506 0.709592,-0.20382 -0.321108,-0.63909 0.165888,-0.35711 -0.367671,-0.0423 -27.343654,-54.38941 -33.303832,-0.26323 -31.833662,49.50143 7.694363,4.13765 z"
             sodipodi:nodetypes="ccccccccccccc" /><path
             style="fill:none;stroke:#1a1a1a;stroke-width:9.61016094;stroke-linecap:round;stroke-linejoin:round;stroke-dasharray:none"
             d="m -87.50603,530.30817 6.93353,-14.071 31.40484,-14.88671 55.06042,10.4003 c 0,0 30.79305,-12.43957 32.83233,-12.23565 2.03927,0.20393 18.96525,-31.60876 18.96525,-31.60876 l -36.29909,-64.84894 -41.39728,0.40785 c -16.224528,23.97965 -26.913848,40.95742 -42.00907,61.99396 l -34.05589,16.72206 -17.74169,-1.83535 z"
             id="path4-6"
             sodipodi:nodetypes="ccccsccccccc" /><path
             style="fill:#8b5237;fill-opacity:1;stroke:#1a1a1a;stroke-width:9.61016094;stroke-linecap:round;stroke-linejoin:round;stroke-dasharray:none"
             d="m -80.36857,515.21753 -14.47885,-34.05589 -19.68268,1.06355 25.42567,46.2951 z"
             id="path5-1" /><rect
             style="fill:#687854;fill-opacity:1;stroke:#687854;stroke-width:9.61016094;stroke-linecap:round;stroke-linejoin:round;stroke-dasharray:none;stroke-opacity:1"
             id="rect5-8"
             width="39.561958"
             height="39.561958"
             x="140.03094"
             y="408.60599"
             ry="2.0616503"
             transform="rotate(20.547248)" /><path
             style="fill:#000000;fill-opacity:0;stroke:#1a1a1a;stroke-width:9.61016094;stroke-linecap:round;stroke-linejoin:round;stroke-dasharray:none;stroke-opacity:1"
             d="m -4.20165,471.47508 16.51813,-20.18882 -23.45167,0.91768"
             id="path6-7" /></g></g><g
         id="g41"
         transform="translate(425.61194,1532.975)"
         style="stroke-width:9.61016094;stroke-dasharray:none"><path
           style="fill:#fdb786;fill-opacity:1;stroke:#1a1a1a;stroke-width:9.61016094;stroke-linecap:round;stroke-linejoin:round;stroke-dasharray:none"
           d="m 513.92191,-852.41504 c -36.65176,-7.5963 -73.8323,-14.8428 -73.8323,-14.8428 0,0 -8.45883,-11.7245 -5.48923,-14.20597 9.2235,-7.7074 37.90367,-14.87913 31.69868,-28.00617 l -5.32832,-29.77248 -7.17862,-11.12427 -0.78454,7.49441 c 0,0 -23.48124,-5.02475 -23.05591,-6.17654 0.42533,-1.15178 24.52318,-29.56932 24.52318,-29.56932 l 34.12601,10.80601 -19.76341,-14.5819 c 0,0 32.37657,-0.75429 32.68787,-0.35051 0.3112,0.40376 9.48539,13.10659 9.81814,12.66983 0.33275,-0.43678 -3.93296,-8.7095 -3.93296,-8.7095 l 17.87652,4.21786 5.15053,11.35771 -1.60049,-7.17787 7.7512,4.66882 36.72519,69.01911 117.37395,110.52388 -68.6218,48.26322 c -5.92857,-14.76335 -99.28034,-101.29056 -108.14369,-114.50352 z"
           id="path37"
           sodipodi:nodetypes="ccsccccscccssccccccccc" /></g></g><g
       id="g45"
       transform="matrix(0.42186399,0,0,0.42186399,-791.88294,77.933376)"
       style="stroke-width:14.2226;stroke-dasharray:none"
       inkscape:export-filename="g45.webp"
       inkscape:export-xdpi="106.44133"
       inkscape:export-ydpi="106.44133"><path
         style="fill:#5b311f;fill-opacity:1;stroke:#1a1a1a;stroke-width:14.2226;stroke-linecap:round;stroke-linejoin:round;stroke-dasharray:none;stroke-opacity:1"
         d="m 1035.514,231.22122 9.242,49.31154 9.4306,26.11484 -3.9445,10.25511 14.4504,15.01611 20.566,-10.07673 -23.0052,-96.17742 z"
         id="path42" /><path
         style="fill:#666666;fill-opacity:1;stroke:#1a1a1a;stroke-width:14.2226;stroke-linecap:round;stroke-linejoin:round;stroke-dasharray:none;stroke-opacity:1"
         d="m 1031.4895,229.2491 -17.3034,-6.85662 -27.85027,-136.15506 12.8046,-67.68793 c 0,0 61.22977,207.87375 59.31087,206.80271 -1.9188,-1.07103 -26.9618,3.8969 -26.9618,3.8969 z"
         id="path43" /><path
         style="fill:#fdb786;fill-opacity:1;stroke:#1a1a1a;stroke-width:14.2226;stroke-linecap:round;stroke-linejoin:round;stroke-dasharray:none;stroke-opacity:1"
         d="m 1033.3963,339.13307 -3,-61.5 21,3.5 10.5,42 16,-79 -4,3 -4,-20 30,1 8.5,20.5 5.75,31.25 -0.5,-17.25 24.5,23 3.75,18.25 -0.5,-18.25 17.75,18.5 -0.75,11.25 2.5,-6 6,8.75 5,27.75 -4,62.75 -23,26 8,117 -121,-13 40,-118 z"
         id="path41" /></g></g></svg>
