<?xml version="1.0" encoding="UTF-8" standalone="no"?>
<!-- Created with Inkscape (http://www.inkscape.org/) -->

<svg
   width="1024"
   height="1024"
   viewBox="0 0 1024 1024"
   version="1.1"
   id="svg1"
   inkscape:version="1.4.3 (0d15f75042, 2025-12-25)"
   xml:space="preserve"
   sodipodi:docname="icon.svg"
   xmlns:inkscape="http://www.inkscape.org/namespaces/inkscape"
   xmlns:sodipodi="http://sodipodi.sourceforge.net/DTD/sodipodi-0.dtd"
   xmlns="http://www.w3.org/2000/svg"
   xmlns:svg="http://www.w3.org/2000/svg"><sodipodi:namedview
     id="namedview1"
     pagecolor="#3a3a3a"
     bordercolor="#a6a6a6"
     borderopacity="1"
     inkscape:showpageshadow="0"
     inkscape:pageopacity="0"
     inkscape:pagecheckerboard="1"
     inkscape:deskcolor="#1a1a1a"
     inkscape:document-units="px"
     guidecolor="#91a666"
     guideopacity="0.6"
     guidehicolor="#a66966"
     guidehiopacity="0.49803922"
     inkscape:zoom="0.15324074"
     inkscape:cx="16.3142"
     inkscape:cy="600.36255"
     inkscape:window-width="1432"
     inkscape:window-height="876"
     inkscape:window-x="0"
     inkscape:window-y="0"
     inkscape:window-maximized="1"
     inkscape:current-layer="layer1" /><defs
     id="defs1"><inkscape:path-effect
       effect="perspective-envelope"
       up_left_point="762.78421,355.0786"
       up_right_point="795.16421,359.27463"
       down_left_point="764.88222,392.85347"
       down_right_point="794.26507,403.94295"
       id="path-effect72"
       is_visible="true"
       lpeversion="1"
       deform_type="perspective"
       horizontal_mirror="false"
       vertical_mirror="false"
       overflow_perspective="false" /><clipPath
       clipPathUnits="userSpaceOnUse"
       id="clipPath1397"><path
         style="fill:#545a78;fill-opacity:1;stroke:#1a1a1a;stroke-width:47.6348;stroke-linecap:round;stroke-linejoin:round;stroke-dasharray:none;stroke-opacity:1"
         d="M 1323.596,-16.160101 V 995.39713 H 577.70436 V -14.01733 Z"
         id="path1397" /></clipPath><inkscape:path-effect
       effect="perspective-envelope"
       up_left_point="762.78421,355.0786"
       up_right_point="795.16421,359.27463"
       down_left_point="764.88222,392.85347"
       down_right_point="794.26507,403.94295"
       id="path-effect72-3"
       is_visible="true"
       lpeversion="1"
       deform_type="perspective"
       horizontal_mirror="false"
       vertical_mirror="false"
       overflow_perspective="false" /><clipPath
       clipPathUnits="userSpaceOnUse"
       id="clipPath1397-6"><path
         style="fill:#545a78;fill-opacity:1;stroke:#1a1a1a;stroke-width:47.6348;stroke-linecap:round;stroke-linejoin:round;stroke-dasharray:none;stroke-opacity:1"
         d="M 1323.596,-16.160101 V 995.39713 H 577.70436 V -14.01733 Z"
         id="path1397-0" /></clipPath><inkscape:path-effect
       effect="perspective-envelope"
       up_left_point="762.78421,355.0786"
       up_right_point="795.16421,359.27463"
       down_left_point="764.88222,392.85347"
       down_right_point="794.26507,403.94295"
       id="path-effect72-7"
       is_visible="true"
       lpeversion="1"
       deform_type="perspective"
       horizontal_mirror="false"
       vertical_mirror="false"
       overflow_perspective="false" /><clipPath
       clipPathUnits="userSpaceOnUse"
       id="clipPath1397-9"><path
         style="fill:#545a78;fill-opacity:1;stroke:#1a1a1a;stroke-width:47.6348;stroke-linecap:round;stroke-linejoin:round;stroke-dasharray:none;stroke-opacity:1"
         d="M 1323.596,-16.160101 V 995.39713 H 577.70436 V -14.01733 Z"
         id="path1397-2" /></clipPath></defs><g
     inkscape:label="Layer 1"
     inkscape:groupmode="layer"
     id="layer1"
     transform="translate(466.10367,-65.633063)"><g
       id="g40"
       transform="matrix(3.9999999,0,0,3.9999999,1398.3109,-196.89921)" /><g
       id="g37"
       transform="matrix(3.9999999,0,0,3.9999999,1398.3109,-196.89921)"><rect
         style="fill:#404145;fill-opacity:1;stroke:#1a1a1a;stroke-width:8.84885;stroke-linecap:round;stroke-linejoin:round;stroke-dasharray:none"
         id="rect1"
         width="247.15115"
         height="247.15115"
         x="-461.67923"
         y="70.057495"
         ry="10.885338" /></g><g
       id="g79"
       inkscape:export-filename="g79.webp"
       inkscape:export-xdpi="98.684471"
       inkscape:export-ydpi="98.684471"
       transform="matrix(3.6592481,0,0,3.6592481,1286.973,-1168.8814)"><rect
         style="fill:none;fill-opacity:1;stroke:none;stroke-width:6.96386;stroke-linecap:round;stroke-linejoin:round;stroke-dasharray:none;stroke-opacity:1"
         id="rect75"
         width="249.03613"
         height="249.03613"
         x="-463.67972"
         y="365.17099"
         ry="11.669514" /><g
         id="g73"><path
           style="fill:#a79e92;fill-opacity:1;stroke:#1a1a1a;stroke-width:9;stroke-linecap:round;stroke-linejoin:round;stroke-dasharray:none"
           d="m -433.8831,418.42763 -18.35348,97.47734 25.74907,18.71718 169.57746,0.2884 31.43527,-18.16902 -15.57344,-91.99865 -12.11267,-8.07512 z"
           id="path7" /><path
           style="fill:#a79e92;fill-opacity:1;stroke:#1a1a1a;stroke-width:9;stroke-linecap:round;stroke-linejoin:round;stroke-dasharray:none"
           d="m -452.44324,521.06749 2.59557,19.89939 15.42925,14.70825 c 58.37272,5.33794 126.5394,-0.41773 182.98791,1.15359 l 25.82136,-12.47637 1.19157,-22.52499 -31.60876,17.63973 -170.46117,0.4904 z"
           id="path8"
           sodipodi:nodetypes="ccccccccc" /><path
           style="fill:#27291d;fill-opacity:1;stroke:#1a1a1a;stroke-width:9;stroke-linecap:round;stroke-linejoin:round;stroke-dasharray:none"
           d="m -361.8967,511.82643 104.12248,-44.22328 -0.93517,-12.26463 -100.33233,35.07553 z"
           id="path23"
           sodipodi:nodetypes="ccccc" /><path
           style="fill:#d8ccb8;fill-opacity:1;stroke:#1a1a1a;stroke-width:9;stroke-linecap:round;stroke-linejoin:round;stroke-dasharray:none"
           d="m -363.52812,512.23429 -50.98186,-17.74169 -1.22357,-18.35348 2.85499,-19.37311 13.45921,-11.21601 32.01661,10.60423 c 0,0 7.34139,15.09063 7.13746,15.90634 -0.20393,0.81571 -3.26284,40.17372 -3.26284,40.17372 z"
           id="path24" /><path
           style="fill:#27291d;fill-opacity:1;stroke:#1a1a1a;stroke-width:9;stroke-linecap:round;stroke-linejoin:round;stroke-dasharray:none"
           d="m -417.22592,475.05968 -2.73977,-24.08115 14.41985,-16.15023 102.95773,-40.37559 32.30047,9.5171 14.41985,22.20658 -0.5768,27.39771 -104.11132,33.74246 2.45137,-16.72703 -8.94031,-15.42924 -33.45404,-8.65191 -11.53589,10.23809 z"
           id="path26"
           sodipodi:nodetypes="ccccccccccccc" /><path
           style="fill:#4c4e41;fill-opacity:1;stroke:#4c4e41;stroke-width:4;stroke-linecap:round;stroke-linejoin:round;stroke-dasharray:none;stroke-opacity:1"
           d="m -360.85242,459.91884 5.04695,-9.22871 11.53588,0.5768 -1.29779,-6.05634 10.2381,-2.16298 3.46076,-8.94031 18.60161,4.03756 4.32596,-7.49832 8.07511,-1.73038 4.32596,-6.20054 8.07512,3.89336 10.23809,-6.05634 4.47015,1.73039 3.89336,-10.95909 -1.87458,-8.94031 -11.10328,-0.43259 2.73977,6.63313 -8.65191,0.72099 0.2884,5.19115 -14.70825,-3.46077 v 9.8055 l -6.77733,-0.72099 1.44198,5.47954 -11.24748,-1.87458 1.44198,4.32596 -12.54527,-2.59558 -4.90275,6.77733 -15.86183,2.88397 -2.16298,6.48894 -13.26627,1.00939 v 9.6613 z"
           id="path34-2" /><path
           style="fill:none;fill-opacity:1;stroke:#1a1a1a;stroke-width:9;stroke-linecap:round;stroke-linejoin:round;stroke-dasharray:none"
           d="m -417.22592,475.05968 -2.73977,-24.08115 14.41985,-16.15023 102.95773,-40.37559 32.30047,9.5171 14.41985,22.20658 -0.5768,27.39771 -104.11132,33.74246 2.45137,-16.72703 -8.94031,-15.42924 -33.45404,-8.65191 -11.53589,10.23809 z"
           id="path61"
           sodipodi:nodetypes="ccccccccccccc" /><path
           style="fill:#a8c96a;fill-opacity:1;stroke:#1a1a1a;stroke-width:4;stroke-linecap:round;stroke-linejoin:round;stroke-dasharray:none"
           d="m -372.89309,487.22429 -7.9604,1.04354 -8.03587,7.00135 -5.92189,-7.17969 -9.72224,0.7387 2.70202,-11.50207 -3.21788,-8.27084 8.30951,-1.59959 6.48052,-7.22795 15.34745,1.90601 -1.64513,9.08345 5.22885,1.99226 -3.27262,6.88283 z"
           id="path62"
           sodipodi:nodetypes="cccccccccccccc" /><path
           style="fill:#27291d;fill-opacity:1;stroke:none;stroke-width:2;stroke-linecap:round;stroke-linejoin:round;stroke-dasharray:none;stroke-opacity:1"
           d="m -355.16709,494.39063 c -0.20393,-0.50982 0,-14.17296 0,-14.17296 l 94.25793,-31.1247 -1.94668,13.19417 z"
           id="path63" /></g></g><g
       inkscape:label="Layer 1"
       id="layer1-0"
       transform="translate(204.72906,431.20631)" /></g></svg>
