<?xml version="1.0" encoding="UTF-8" standalone="no"?>
<!-- Created with Inkscape (http://www.inkscape.org/) -->

<svg
   width="2560"
   height="1660"
   viewBox="0 0 2559.9999 1660"
   version="1.1"
   id="svg1"
   inkscape:version="1.4.3 (0d15f75042, 2025-12-25)"
   xml:space="preserve"
   sodipodi:docname="logo.svg"
   inkscape:export-filename="logo.webp"
   inkscape:export-xdpi="125.22155"
   inkscape:export-ydpi="125.22155"
   xmlns:inkscape="http://www.inkscape.org/namespaces/inkscape"
   xmlns:sodipodi="http://sodipodi.sourceforge.net/DTD/sodipodi-0.dtd"
   xmlns="http://www.w3.org/2000/svg"
   xmlns:svg="http://www.w3.org/2000/svg"><sodipodi:namedview
     id="namedview1"
     pagecolor="#3a3a3a"
     bordercolor="#a6a6a6"
     borderopacity="1"
     inkscape:showpageshadow="0"
     inkscape:pageopacity="0"
     inkscape:pagecheckerboard="1"
     inkscape:deskcolor="#1a1a1a"
     inkscape:document-units="px"
     guidecolor="#91a666"
     guideopacity="0.6"
     guidehicolor="#a66966"
     guidehiopacity="0.49803922"
     inkscape:zoom="0.21671513"
     inkscape:cx="1342.7766"
     inkscape:cy="1167.4312"
     inkscape:window-width="1432"
     inkscape:window-height="876"
     inkscape:window-x="0"
     inkscape:window-y="0"
     inkscape:window-maximized="1"
     inkscape:current-layer="layer1"><inkscape:page
       x="-7.4929739e-07"
       y="1.8033444e-06"
       width="2560"
       height="1660"
       id="page2"
       margin="0"
       bleed="0" /></sodipodi:namedview><defs
     id="defs1"><inkscape:path-effect
       effect="perspective-envelope"
       up_left_point="762.78421,355.0786"
       up_right_point="795.16421,359.27463"
       down_left_point="764.88222,392.85347"
       down_right_point="794.26507,403.94295"
       id="path-effect72"
       is_visible="true"
       lpeversion="1"
       deform_type="perspective"
       horizontal_mirror="false"
       vertical_mirror="false"
       overflow_perspective="false" /><clipPath
       clipPathUnits="userSpaceOnUse"
       id="clipPath1397"><path
         style="fill:#545a78;fill-opacity:1;stroke:#1a1a1a;stroke-width:47.6348;stroke-linecap:round;stroke-linejoin:round;stroke-dasharray:none;stroke-opacity:1"
         d="M 1323.596,-16.160101 V 995.39713 H 577.70436 V -14.01733 Z"
         id="path1397" /></clipPath><inkscape:path-effect
       effect="perspective-envelope"
       up_left_point="762.78421,355.0786"
       up_right_point="795.16421,359.27463"
       down_left_point="764.88222,392.85347"
       down_right_point="794.26507,403.94295"
       id="path-effect72-9"
       is_visible="true"
       lpeversion="1"
       deform_type="perspective"
       horizontal_mirror="false"
       vertical_mirror="false"
       overflow_perspective="false" /><clipPath
       clipPathUnits="userSpaceOnUse"
       id="clipPath1397-7"><path
         style="fill:#545a78;fill-opacity:1;stroke:#1a1a1a;stroke-width:47.6348;stroke-linecap:round;stroke-linejoin:round;stroke-dasharray:none;stroke-opacity:1"
         d="M 1323.596,-16.160101 V 995.39713 H 577.70436 V -14.01733 Z"
         id="path1397-5" /></clipPath></defs><g
     inkscape:label="Layer 1"
     inkscape:groupmode="layer"
     id="layer1"
     transform="translate(-589.75461,-848.49405)"><path
       style="fill:#e3dbdb;fill-opacity:1;stroke:#e3dbdb;stroke-width:44.0885;stroke-linecap:round;stroke-linejoin:round;stroke-dasharray:none;stroke-opacity:1"
       d="m 919.31634,2404.6577 -82.61498,30.8732 -203.91191,-149.7603 26.98831,-321.9843 149.93521,-122.8033 -184.42028,-80.8706 143.93779,-256.0896 -157.43199,-182.7075 85.46309,-196.1856 202.41252,-98.8419 560.7578,94.349 244.3942,-23.9616 178.4231,-70.3874 193.9496,9.1991 64.6722,-30.7099 444.5743,0.5448 199.4135,-134.78413 206.9106,203.67383 -118.4482,148.2625 -26.9885,260.5825 100.4562,-59.904 179.9224,218.6498 -134.9419,106.3297 2.9991,507.6866 -545.7641,-22.4635 -185.9196,46.4259 -80.9654,-47.9236 -92.9597,97.3436 -150.5055,9.6529 -62.9286,-70.2694 -34.871,90.8388 -117.5368,13.2087 -47.9795,-65.8942 -14.9933,65.8942 -287.8756,32.9475 -56.9755,-80.8709 -26.9883,98.8417 -284.8768,62.8997 z"
       id="path16"
       sodipodi:nodetypes="ccccccccccccccccccccccccccccccccccccccc" /><path
       style="fill:#f37d3d;stroke:#1d1d1d;stroke-width:51.4368;stroke-linecap:round;stroke-linejoin:round;stroke-dasharray:none;fill-opacity:1"
       d="m 830.70395,1575.9074 -65.97152,158.7458 248.89247,91.354 235.3982,-203.6741 -73.4682,-184.205 -209.9093,-98.8416 1.49938,-67.392 179.92222,40.4353 59.9741,-155.7507 -257.88856,-52.416 -151.43458,85.3634 -29.98705,167.7314 295.37239,211.1617 -80.96506,88.3584 z"
       id="path1" /><path
       style="fill:#f37d3d;stroke:#1d1d1d;stroke-width:51.4368;stroke-linecap:round;stroke-linejoin:round;stroke-dasharray:none;fill-opacity:1"
       d="m 1267.2042,1190.0956 -10.602,274.9894 125.1039,168.7166 179.1742,-9.5306 113.4415,-141.9014 -18.0235,-310.2764 -137.8263,22.2383 7.4214,278.5074 -62.0217,1.5886 -62.0218,1.5885 13.7827,-272.1538 -144.1875,-33.8869 z"
       id="path2"
       sodipodi:nodetypes="ccccccccccccc" /><path
       style="fill:#f37d3d;stroke:#1d1d1d;stroke-width:51.4368;stroke-linecap:round;stroke-linejoin:round;stroke-dasharray:none;fill-opacity:1"
       d="m 1765.4992,1443.188 135.7059,40.2407 34.9867,-45.5355 -196.1376,-115.4269 11.6625,-151.4319 151.6086,-74.1276 159.0304,51.8893 -44.5284,104.8374 -135.7059,-36.0048 -16.9632,49.7713 168.572,80.4813 47.7093,95.3067 -81.6357,151.4318 -128.2845,23.2973 -173.873,-73.0686 z"
       id="path3" /><path
       style="fill:#f37d3d;stroke:#1d1d1d;stroke-width:51.4368;stroke-linecap:round;stroke-linejoin:round;stroke-dasharray:none;fill-opacity:1"
       d="m 2145.0516,1594.6198 4.2408,-177.9058 3.1805,-116.486 11.6623,-206.4981 133.5852,4.2359 -10.602,182.1418 124.044,4.2357 25.4444,-206.4978 139.9466,8.4717 -26.5044,194.8494 -18.0239,112.2501 -19.0836,275.3307 -131.4651,-10.5898 16.9634,-258.3869 -117.6821,7.4125 -13.7826,199.0853 z"
       id="path4"
       sodipodi:nodetypes="ccccccccccccccccc" /><path
       style="fill:#f37d3d;stroke:#1d1d1d;stroke-width:51.4368;stroke-linecap:round;stroke-linejoin:round;stroke-dasharray:none;fill-opacity:1"
       d="m 2593.9418,1677.7445 146.9364,7.488 62.9733,-438.7972 -154.4339,-4.4927 z"
       id="path5" /><path
       style="fill:#feb273;stroke:#1d1d1d;stroke-width:51.4368;stroke-linecap:round;stroke-linejoin:round;stroke-dasharray:none;fill-opacity:1"
       d="m 2743.6048,1189.5265 c 0,0 -107.9535,-131.657 -100.4563,-131.657 7.4967,0 134.9411,-95.97851 134.9411,-95.97851 l 94.4598,133.28661 z"
       id="path6" /><path
       style="fill:#e3dbdb;stroke:#1d1d1d;stroke-width:51.4368;stroke-linecap:round;stroke-linejoin:round;stroke-dasharray:none;fill-opacity:1"
       d="m 982.13844,2153.9819 c 0,0 -76.46693,11.9806 -70.46952,11.9806 5.99739,0 7.49677,-77.8752 7.49677,-77.8752 l 205.41131,-7.4878 -8.9962,70.3867 -37.4838,2.9957 -4.498,215.6547 -92.95985,-10.4833 10.49545,-73.3827 -146.93655,70.387 -121.44747,-101.8369 16.24934,-250.0988 198.158,-134.7844 149.93518,44.928 -80.2152,86.8608 -107.2038,-22.4638 -88.46176,122.8029 43.48122,136.2818 107.95336,-1.4974 z"
       id="path7" /><path
       style="fill:#e3dbdb;stroke:#1d1d1d;stroke-width:51.4368;stroke-linecap:round;stroke-linejoin:round;stroke-dasharray:none;fill-opacity:1"
       d="m 1124.577,2282.7757 134.9416,-363.9174 94.4592,-4.4928 125.9456,353.4341 -85.4631,41.9329 -43.4811,-101.8369 -120.1103,11.9805 -23.8276,89.8564 z"
       id="path8" /><path
       style="fill:#e3dbdb;stroke:#1d1d1d;stroke-width:44.0885;stroke-linecap:round;stroke-linejoin:round;stroke-dasharray:none;fill-opacity:1"
       d="m 1283.0823,2094.9729 h 47.651 l -29.385,-86.5599 z"
       id="path9" /><path
       style="fill:#e3dbdb;fill-opacity:1;stroke:#1d1d1d;stroke-width:44.0885;stroke-linecap:round;stroke-linejoin:round;stroke-dasharray:none"
       d="m 1520.406,2287.2677 2.9986,-371.4046 85.4631,-1.4976 -4.4981,146.7649 139.4396,-172.468 62.9729,52.6598 -125.9454,145.2677 c 39.85,61.647 86.2412,118.4216 131.4834,176.0975 l -126.4068,13.2966 -71.0483,-141.4715 -14.9935,146.765 z"
       id="path10"
       sodipodi:nodetypes="cccccccccccc" /><path
       style="fill:#e3dbdb;stroke:#1d1d1d;stroke-width:37.4388;stroke-linecap:round;stroke-linejoin:round;stroke-dasharray:none;fill-opacity:1"
       d="m 1848.7931,1911.5239 -7.7169,200.1539 91.0583,122.8015 130.4136,-6.9363 82.5697,-103.2846 -13.1185,-225.838 -100.3184,16.1863 5.4019,202.7148 -45.1436,1.1559 -45.1429,1.1567 10.0316,-198.0908 -104.9482,-24.6644 z"
       id="path11"
       sodipodi:nodetypes="ccccccccccccc" /><path
       style="fill:#e3dbdb;stroke:#1d1d1d;stroke-width:36.2114;stroke-linecap:round;stroke-linejoin:round;stroke-dasharray:none;fill-opacity:1"
       d="m 2229.732,2082.4312 95.5371,28.3301 24.6308,-32.057 -138.0812,-81.2614 8.2104,-106.6082 106.7329,-52.1857 111.9575,36.5301 -31.348,73.806 -95.5372,-25.3479 -11.9421,35.0396 118.6749,56.6584 33.5873,67.096 -57.4717,106.6088 -90.3123,16.4011 -122.4069,-51.4405 z"
       id="path12" /><path
       style="fill:#e3dbdb;stroke:#1d1d1d;stroke-width:37.4173;stroke-linecap:round;stroke-linejoin:round;stroke-dasharray:none;fill-opacity:1"
       d="m 2792.3393,2167.7637 106.8881,5.4478 35.3142,-388.0905 -107.8442,-1.7708 z"
       id="path13"
       sodipodi:nodetypes="ccccc" /><path
       style="fill:#b6b95d;stroke:#1d1d1d;stroke-width:37.4173;stroke-linecap:round;stroke-linejoin:round;stroke-dasharray:none;fill-opacity:1"
       d="m 2911.7062,1710.7757 c 0,0 -78.5302,-95.7731 -73.0762,-95.7731 5.4534,0 98.162,-69.819 98.162,-69.819 l 68.7143,96.9586 z"
       id="path14" /><path
       style="fill:#e3dbdb;stroke:#1d1d1d;stroke-width:44.0885;stroke-linecap:round;stroke-linejoin:round;stroke-dasharray:none;fill-opacity:1"
       d="m 2502.4812,2171.9526 13.4946,-359.4241 247.3928,-13.4784 -4.4982,79.373 -170.9259,8.9856 1.499,76.3776 125.9456,-17.9712 -10.4946,74.8796 -116.2002,15.7245 2.2493,66.6444 161.9292,-26.9568 -7.4962,79.3721 z"
       id="path15"
       sodipodi:nodetypes="ccccccccccccc" /><g
       id="g17"
       transform="matrix(-1,0,0,1,3025.5998,32.628399)"><g
         id="g80"
         inkscape:export-filename="g80.webp"
         inkscape:export-xdpi="98.684471"
         inkscape:export-ydpi="98.684471"
         transform="matrix(-1,0,0,1,566.33249,1544.7555)"><rect
           style="fill:none;fill-opacity:1;stroke:none;stroke-width:6.96386;stroke-linecap:round;stroke-linejoin:round;stroke-dasharray:none;stroke-opacity:1"
           id="rect78"
           width="249.03613"
           height="249.03613"
           x="-464.43744"
           y="67.299301"
           ry="11.669514" /><g
           id="g74"><path
             style="fill:#e3dbdb;fill-opacity:1;stroke:#1a1a1a;stroke-width:9;stroke-linecap:round;stroke-linejoin:round;stroke-dasharray:none"
             d="m -359.69103,234.44042 104.12248,-44.22328 -0.93517,-12.26463 -100.33233,35.07553 z"
             id="path43"
             sodipodi:nodetypes="ccccc" /><path
             style="fill:#e3dbdb;fill-opacity:1;stroke:#1a1a1a;stroke-width:9;stroke-linecap:round;stroke-linejoin:round;stroke-dasharray:none"
             d="m -361.32245,234.84828 -50.98186,-17.74169 -1.22357,-18.35348 2.85499,-19.37311 13.45921,-11.21601 32.01661,10.60423 c 0,0 7.34139,15.09063 7.13746,15.90634 -0.20393,0.81571 -3.26284,40.17372 -3.26284,40.17372 z"
             id="path44" /><path
             style="fill:#f37d3d;fill-opacity:1;stroke:#1a1a1a;stroke-width:4;stroke-linecap:round;stroke-linejoin:round;stroke-dasharray:none"
             d="m -401.17719,209.20955 7.9604,1.04354 8.03587,7.00135 12.55502,1.61642 3.08911,-8.05741 -2.70202,-11.50207 3.21788,-8.27084 -8.30951,-1.59959 -6.48052,-7.22795 -11.74249,-1.84315 -1.81563,8.65085 -5.37305,6.17402 3.27262,6.88283 z"
             id="path45"
             sodipodi:nodetypes="cccccccccccccc" /><path
             style="fill:#e3dbdb;fill-opacity:1;stroke:#1a1a1a;stroke-width:9;stroke-linecap:round;stroke-linejoin:round;stroke-dasharray:none"
             d="m -415.02025,197.67367 -2.73977,-24.08115 14.41985,-16.15023 102.95773,-40.37559 32.30047,9.5171 14.41985,22.20658 -0.5768,27.39771 -104.11132,33.74246 2.45137,-16.72703 -8.94031,-15.42924 -33.45404,-8.65191 -11.53589,10.23809 z"
             id="path46"
             sodipodi:nodetypes="ccccccccccccc" /><path
             style="fill:#e3dbdb;fill-opacity:1;stroke:#1a1a1a;stroke-width:4;stroke-linecap:round;stroke-linejoin:round;stroke-dasharray:none"
             d="m -376.98897,161.38088 3.46077,-4.18175 4.47015,0.86519 c 0,0 3.46077,-5.47955 4.47016,-4.90275 1.00938,0.57679 3.89335,1.44198 3.89335,1.44198 l 4.03756,-5.33534 7.49833,0.72099 5.91214,-6.34473 6.05633,1.44198 6.20054,-4.61435 5.76794,1.44198 2.59557,-5.76794 3.60497,1.29779 1.73038,-6.34473 9.2287,2.45137 2.73977,-5.47954 3.74917,2.01878 4.32595,-3.74916"
             id="path53" /><path
             style="fill:#e3dbdb;fill-opacity:1;stroke:#1a1a1a;stroke-width:4;stroke-linecap:round;stroke-linejoin:round;stroke-dasharray:none"
             d="m -361.49048,169.33405 3.46077,-4.18175 4.47015,0.86519 c 0,0 3.46077,-5.47955 4.47016,-4.90275 1.00938,0.57679 3.89335,1.44198 3.89335,1.44198 l 4.03756,-5.33534 7.49833,0.72099 5.91214,-6.34473 6.05633,1.44198 6.20054,-4.61435 5.76794,1.44198 2.59557,-5.76794 3.60497,1.29779 1.73038,-6.34473 9.2287,2.45137 2.73977,-5.47954 3.74917,2.01878 4.32595,-3.74916"
             id="path54" /><path
             style="fill:#e3dbdb;fill-opacity:1;stroke:#1a1a1a;stroke-width:4;stroke-linecap:round;stroke-linejoin:round;stroke-dasharray:none"
             d="m -348.84698,177.899 3.46077,-4.18175 4.47015,0.86519 c 0,0 3.46077,-5.47955 4.47016,-4.90275 1.00938,0.57679 3.89335,1.44198 3.89335,1.44198 l 4.03756,-5.33534 7.49833,0.72099 5.91214,-6.34473 6.05633,1.44198 6.20054,-4.61435 5.76794,1.44198 2.59557,-5.76794 3.60497,1.29779 1.73038,-6.34473 9.2287,2.45137 2.73977,-5.47954 3.74917,2.01878 4.32595,-3.74916"
             id="path55" /><path
             style="fill:#e3dbdb;fill-opacity:1;stroke:#1a1a1a;stroke-width:4;stroke-linecap:round;stroke-linejoin:round;stroke-dasharray:none"
             d="m -342.72916,193.80534 3.46077,-4.18175 4.47015,0.86519 c 0,0 3.46077,-5.47955 4.47016,-4.90275 1.00938,0.57679 3.89335,1.44198 3.89335,1.44198 l 4.03756,-5.33534 7.49833,0.72099 5.91214,-6.34473 6.05633,1.44198 6.20054,-4.61435 5.76794,1.44198 2.59557,-5.76794 3.60497,1.29779 1.73038,-6.34473 9.2287,2.45137 2.73977,-5.47954 3.74917,2.01878 4.32595,-3.74916"
             id="path56" /></g></g><g
         id="g81"
         inkscape:export-filename="g81.webp"
         inkscape:export-xdpi="98.684471"
         inkscape:export-ydpi="98.684471"
         transform="matrix(-1,0,0,1,809.96561,1558.459)"><rect
           style="fill:none;fill-opacity:1;stroke:none;stroke-width:6.96386;stroke-linecap:round;stroke-linejoin:round;stroke-dasharray:none;stroke-opacity:1"
           id="rect77"
           width="249.03613"
           height="249.03613"
           x="-160.17761"
           y="67.299301"
           ry="11.669514" /><g
           id="g75"><path
             style="fill:#e3dbdb;fill-opacity:1;stroke:#1a1a1a;stroke-width:9;stroke-linecap:round;stroke-linejoin:round;stroke-dasharray:none"
             d="m -64.698357,236.08249 104.12248,-44.22328 -0.93517,-12.26463 -100.33233,35.07553 z"
             id="path11-8"
             sodipodi:nodetypes="ccccc" /><path
             style="fill:#e3dbdb;fill-opacity:1;stroke:#1a1a1a;stroke-width:9;stroke-linecap:round;stroke-linejoin:round;stroke-dasharray:none"
             d="m -66.329777,236.49035 -50.981863,-17.74169 -1.22357,-18.35348 2.85499,-19.37311 13.4592,-11.21601 32.016623,10.60423 c 0,0 7.34139,15.09063 7.13746,15.90634 -0.20393,0.81571 -3.26284,40.17372 -3.26284,40.17372 z"
             id="path12-9" /><path
             style="fill:#f37d3d;fill-opacity:1;stroke:#1a1a1a;stroke-width:9;stroke-linecap:round;stroke-linejoin:round;stroke-dasharray:none"
             d="m -120.02758,199.31574 -2.73977,-24.08115 14.41985,-16.15023 102.9577328,-40.37559 32.3004702,9.5171 14.41985,22.20658 -0.5768,27.39771 -104.11132,33.74246 2.45137,-16.72703 -8.94031,-15.42924 -33.454053,-8.65191 -11.53588,10.23809 z"
             id="path14-6"
             sodipodi:nodetypes="ccccccccccccc" /><path
             style="fill:none;fill-opacity:1;stroke:#feb273;stroke-width:4;stroke-linecap:round;stroke-linejoin:round;stroke-dasharray:none;stroke-opacity:1"
             d="m -58.784457,203.86195 18.35347,-37.31873 -5.50604,-8.76888 -29.97734,-7.74925"
             id="path15-4" /><path
             style="fill:none;fill-opacity:1;stroke:#feb273;stroke-width:4;stroke-linecap:round;stroke-linejoin:round;stroke-dasharray:none;stroke-opacity:1"
             d="m -104.05637,160.83325 21.208463,4.69033 3.26284,8.97281"
             id="path16-3" /><path
             style="fill:none;fill-opacity:1;stroke:#feb273;stroke-width:4;stroke-linecap:round;stroke-linejoin:round;stroke-dasharray:none;stroke-opacity:1"
             d="m -88.761797,153.28793 25.08308,15.49849 -1.22357,18.96526"
             id="path17" /><path
             style="fill:none;fill-opacity:1;stroke:#feb273;stroke-width:4;stroke-linecap:round;stroke-linejoin:round;stroke-dasharray:none;stroke-opacity:1"
             d="m -37.983857,199.17162 17.94562,-43.23263 c 0,0 -3.26284,-8.36103 -4.28248,-8.36103 -1.01963,0 -30.18127,-5.9139 -30.18127,-5.9139"
             id="path18" /><path
             style="fill:none;fill-opacity:1;stroke:#feb273;stroke-width:4;stroke-linecap:round;stroke-linejoin:round;stroke-dasharray:none;stroke-opacity:1"
             d="m -34.109237,131.67162 23.85952,3.87462 6.5256798,16.3142 -15.2945598,43.23263"
             id="path19" /><path
             style="fill:none;fill-opacity:1;stroke:#feb273;stroke-width:4;stroke-linecap:round;stroke-linejoin:round;stroke-dasharray:none;stroke-opacity:1"
             d="m -8.6182972,122.29095 21.6163202,9.78852 2.44713,19.9849 -16.7220602,37.1148"
             id="path20" /><path
             style="fill:none;fill-opacity:1;stroke:#feb273;stroke-width:4;stroke-linecap:round;stroke-linejoin:round;stroke-dasharray:none;stroke-opacity:1"
             d="m 13.201943,184.69277 13.05136,-25.28701 5.9139,-20.18883"
             id="path21" /><path
             style="fill:none;fill-opacity:1;stroke:#feb273;stroke-width:4;stroke-linecap:round;stroke-linejoin:round;stroke-dasharray:none;stroke-opacity:1"
             d="m 27.884723,179.39065 12.23565,-25.69486"
             id="path22" /><path
             style="fill:none;fill-opacity:1;stroke:#1a1a1a;stroke-width:9;stroke-linecap:round;stroke-linejoin:round;stroke-dasharray:none"
             d="m -120.02758,199.31574 -2.73977,-24.08115 14.41985,-16.15023 102.9577328,-40.37559 32.3004702,9.5171 14.41985,22.20658 -0.5768,27.39771 -104.11132,33.74246 2.45137,-16.72703 -8.94031,-15.42924 -33.454053,-8.65191 -11.53588,10.23809 z"
             id="path57"
             sodipodi:nodetypes="ccccccccccccc" /><path
             style="fill:#e3dbdb;fill-opacity:1;stroke:none;stroke-width:4;stroke-linecap:round;stroke-linejoin:round;stroke-dasharray:none;stroke-opacity:1"
             d="m -70.392771,230.30671 5.822361,1.01745 7.150214,-3.21186 0.904922,-10.52775 -6.321756,1.19807 -7.8512,-2.65106 z"
             id="path58"
             sodipodi:nodetypes="ccccccc" /><path
             style="fill:#f37d3d;fill-opacity:1;stroke:#1a1a1a;stroke-width:3.53262;stroke-linecap:round;stroke-linejoin:round;stroke-dasharray:none"
             d="m -87.589783,216.09072 2.709776,-6.5522 7.809416,-5.25475 4.248705,-10.34075 -6.16738,-4.47695 -10.429616,-0.32412 -6.320015,-4.63559 -3.26392,6.72291 -7.647203,3.87615 -4.25639,9.59578 6.96471,3.52624 4.038672,5.99479 6.619535,-1.21849 z"
             id="path59"
             sodipodi:nodetypes="cccccccccccccc" /><path
             style="fill:#b6b95d;fill-opacity:1;stroke:#1a1a1a;stroke-width:2;stroke-linecap:round;stroke-linejoin:round;stroke-dasharray:none;stroke-opacity:1"
             d="m -93.204533,213.02657 c 0,0 -3.029927,-8.60243 -3.534617,-8.60243 -0.5047,0 -8.94031,-8.50771 -8.94031,-8.50771 l -3.53286,8.21931 6.45382,3.55686 3.700535,5.77957 z"
             id="path60"
             sodipodi:nodetypes="csccccc" /></g></g><g
         id="g79"
         inkscape:export-filename="g79.webp"
         inkscape:export-xdpi="98.684471"
         inkscape:export-ydpi="98.684471"
         transform="translate(4811.2638,1643.4862)"><rect
           style="fill:none;fill-opacity:1;stroke:none;stroke-width:6.96386;stroke-linecap:round;stroke-linejoin:round;stroke-dasharray:none;stroke-opacity:1"
           id="rect75"
           width="249.03613"
           height="249.03613"
           x="-3379.9504"
           y="19.094553"
           ry="11.669514" /><g
           id="g73"><g
             id="g16"><path
               style="fill:#27291d;fill-opacity:1;stroke:#1a1a1a;stroke-width:9;stroke-linecap:round;stroke-linejoin:round;stroke-dasharray:none"
               d="m -3278.1675,165.74999 104.1225,-44.22328 -0.9352,-12.26463 -100.3323,35.07553 z"
               id="path23"
               sodipodi:nodetypes="ccccc" /><path
               style="fill:#d8ccb8;fill-opacity:1;stroke:#1a1a1a;stroke-width:9;stroke-linecap:round;stroke-linejoin:round;stroke-dasharray:none"
               d="m -3279.7989,166.15785 -50.9819,-17.74169 -1.2235,-18.35348 2.855,-19.37311 13.4592,-11.216007 32.0166,10.604227 c 0,0 7.3414,15.09063 7.1374,15.90634 -0.2039,0.81571 -3.2628,40.17372 -3.2628,40.17372 z"
               id="path24" /><path
               style="fill:#27291d;fill-opacity:1;stroke:#1a1a1a;stroke-width:9;stroke-linecap:round;stroke-linejoin:round;stroke-dasharray:none"
               d="m -3333.4967,128.98324 -2.7398,-24.08115 14.4199,-16.150227 102.9577,-40.37559 32.3005,9.5171 14.4198,22.20658 -0.5768,27.397707 -104.1113,33.74246 2.4514,-16.72703 -8.9403,-15.42924 -33.4541,-8.65191 -11.5359,10.23809 z"
               id="path26"
               sodipodi:nodetypes="ccccccccccccc" /><path
               style="fill:#4c4e41;fill-opacity:1;stroke:#4c4e41;stroke-width:4;stroke-linecap:round;stroke-linejoin:round;stroke-dasharray:none;stroke-opacity:1"
               d="m -3277.1232,113.8424 5.047,-9.22871 11.5358,0.5768 -1.2978,-6.056337 10.2381,-2.16298 3.4608,-8.94031 18.6016,4.03756 4.326,-7.49832 8.0751,-1.73038 4.3259,-6.20054 8.0752,3.89336 10.2381,-6.05634 4.4701,1.73039 3.8934,-10.95909 -1.8746,-8.94031 -11.1033,-0.43259 2.7398,6.63313 -8.6519,0.72099 0.2884,5.19115 -14.7083,-3.46077 v 9.8055 l -6.7773,-0.72099 1.442,5.47954 -11.2475,-1.87458 1.442,4.32596 -12.5453,-2.59558 -4.9028,6.77733 -15.8618,2.88397 -2.163,6.48894 -13.2662,1.00939 v 9.661297 z"
               id="path34" /><path
               style="fill:none;fill-opacity:1;stroke:#1a1a1a;stroke-width:9;stroke-linecap:round;stroke-linejoin:round;stroke-dasharray:none"
               d="m -3333.4967,128.98324 -2.7398,-24.08115 14.4199,-16.150227 102.9577,-40.37559 32.3005,9.5171 14.4198,22.20658 -0.5768,27.397707 -104.1113,33.74246 2.4514,-16.72703 -8.9403,-15.42924 -33.4541,-8.65191 -11.5359,10.23809 z"
               id="path61"
               sodipodi:nodetypes="ccccccccccccc" /><path
               style="fill:#a8c96a;fill-opacity:1;stroke:#1a1a1a;stroke-width:4;stroke-linecap:round;stroke-linejoin:round;stroke-dasharray:none"
               d="m -3289.1639,141.14785 -7.9604,1.04354 -8.0358,7.00135 -5.9219,-7.17969 -9.7223,0.7387 2.7021,-11.50207 -3.2179,-8.27084 8.3095,-1.59959 6.4805,-7.22795 15.3475,1.90601 -1.6452,9.08345 5.2289,1.99226 -3.2726,6.88283 z"
               id="path62"
               sodipodi:nodetypes="cccccccccccccc" /><path
               style="fill:#27291d;fill-opacity:1;stroke:none;stroke-width:2;stroke-linecap:round;stroke-linejoin:round;stroke-dasharray:none;stroke-opacity:1"
               d="m -3271.4379,148.31419 c -0.2039,-0.50982 0,-14.17296 0,-14.17296 l 94.258,-31.1247 -1.9467,13.19417 z"
               id="path63" /></g></g></g><g
         id="g78"
         inkscape:export-filename="g78.webp"
         inkscape:export-xdpi="98.684471"
         inkscape:export-ydpi="98.684471"
         transform="translate(1645.818,1308.9456)"><rect
           style="fill:none;fill-opacity:1;stroke:none;stroke-width:6.96386;stroke-linecap:round;stroke-linejoin:round;stroke-dasharray:none;stroke-opacity:1"
           id="rect76"
           width="249.03613"
           height="249.03613"
           x="-159.41988"
           y="365.17099"
           ry="11.669514" /><g
           id="g72"><path
             style="fill:#1d1e28;fill-opacity:1;stroke:#1a1a1a;stroke-width:9;stroke-linecap:round;stroke-linejoin:round;stroke-dasharray:none"
             d="m -56.821166,511.82643 104.12248,-44.22328 -0.93517,-12.26463 -100.33233,35.07553 z"
             id="path64"
             sodipodi:nodetypes="ccccc" /><path
             style="fill:#d8ccb8;fill-opacity:1;stroke:#1a1a1a;stroke-width:9;stroke-linecap:round;stroke-linejoin:round;stroke-dasharray:none"
             d="m -58.452586,512.23429 -50.981864,-17.74169 -1.22357,-18.35348 2.85499,-19.37311 13.459214,-11.21601 32.01661,10.60423 c 0,0 7.34139,15.09063 7.13746,15.90634 -0.20393,0.81571 -3.26284,40.17372 -3.26284,40.17372 z"
             id="path65" /><path
             style="fill:#1d1e28;fill-opacity:1;stroke:#1a1a1a;stroke-width:9;stroke-linecap:round;stroke-linejoin:round;stroke-dasharray:none"
             d="m -112.15039,475.05968 -2.73977,-24.08115 14.41985,-16.15023 102.9577344,-40.37559 32.3004696,9.5171 14.41985,22.20658 -0.5768,27.39771 -104.11132,33.74246 2.45137,-16.72703 -8.94031,-15.42924 -33.45404,-8.65191 -11.535894,10.23809 z"
             id="path66"
             sodipodi:nodetypes="ccccccccccccc" /><path
             style="fill:#41444e;fill-opacity:1;stroke:#41444e;stroke-width:4;stroke-linecap:round;stroke-linejoin:round;stroke-dasharray:none;stroke-opacity:1"
             d="m -55.776886,459.91884 5.04695,-9.22871 11.53588,0.5768 -1.29779,-6.05634 10.2381,-2.16298 3.46076,-8.94031 18.6016104,4.03756 4.32596,-7.49832 8.07511,-1.73038 4.32596,-6.20054 8.0751196,3.89336 10.23809,-6.05634 4.47015,1.73039 3.89336,-10.95909 -1.87458,-8.94031 -11.10328,-0.43259 2.73977,6.63313 -8.65191,0.72099 0.2884,5.19115 -14.7082496,-3.46077 v 9.8055 l -6.77733,-0.72099 1.44198,5.47954 -11.2474804,-1.87458 1.44198,4.32596 -12.54527,-2.59558 -4.90275,6.77733 -15.86183,2.88397 -2.16298,6.48894 -13.26627,1.00939 v 9.6613 z"
             id="path67" /><path
             style="fill:none;fill-opacity:1;stroke:#1a1a1a;stroke-width:9;stroke-linecap:round;stroke-linejoin:round;stroke-dasharray:none"
             d="m -112.15039,475.05968 -2.73977,-24.08115 14.41985,-16.15023 102.9577344,-40.37559 32.3004696,9.5171 14.41985,22.20658 -0.5768,27.39771 -104.11132,33.74246 2.45137,-16.72703 -8.94031,-15.42924 -33.45404,-8.65191 -11.535894,10.23809 z"
             id="path68"
             sodipodi:nodetypes="ccccccccccccc" /><path
             style="fill:#c8594d;fill-opacity:1;stroke:#1a1a1a;stroke-width:4;stroke-linecap:round;stroke-linejoin:round;stroke-dasharray:none"
             d="m -67.817556,487.22429 -7.9604,1.04354 -8.03587,7.00135 -5.92189,-7.17969 -9.72224,0.7387 2.70202,-11.50207 -3.21788,-8.27084 8.30951,-1.59959 6.48052,-7.22795 15.34745,1.90601 -1.64513,9.08345 5.22885,1.99226 -3.27262,6.88283 z"
             id="path69"
             sodipodi:nodetypes="cccccccccccccc" /><path
             style="fill:#1d1e28;fill-opacity:1;stroke:none;stroke-width:2;stroke-linecap:round;stroke-linejoin:round;stroke-dasharray:none;stroke-opacity:1"
             d="m -50.091556,494.39063 c -0.20393,-0.50982 0,-14.17296 0,-14.17296 l 94.25793,-31.1247 -1.94668,13.19417 z"
             id="path70" /></g></g></g></g></svg>
