<?xml version="1.0" encoding="UTF-8" standalone="no"?>
<!-- Created with Inkscape (http://www.inkscape.org/) -->

<svg
   width="557.81268"
   height="556.18127"
   viewBox="0 0 557.81268 556.18127"
   version="1.1"
   id="svg1"
   inkscape:version="1.4.3 (0d15f75042, 2025-12-25)"
   xml:space="preserve"
   sodipodi:docname="sushi.svg"
   xmlns:inkscape="http://www.inkscape.org/namespaces/inkscape"
   xmlns:sodipodi="http://sodipodi.sourceforge.net/DTD/sodipodi-0.dtd"
   xmlns="http://www.w3.org/2000/svg"
   xmlns:svg="http://www.w3.org/2000/svg"><sodipodi:namedview
     id="namedview1"
     pagecolor="#3a3a3a"
     bordercolor="#a6a6a6"
     borderopacity="1"
     inkscape:showpageshadow="0"
     inkscape:pageopacity="0"
     inkscape:pagecheckerboard="1"
     inkscape:deskcolor="#1a1a1a"
     inkscape:document-units="px"
     guidecolor="#91a666"
     guideopacity="0.6"
     guidehicolor="#a66966"
     guidehiopacity="0.49803922"
     inkscape:zoom="1.2259259"
     inkscape:cx="260.21149"
     inkscape:cy="329.54683"
     inkscape:window-width="1432"
     inkscape:window-height="876"
     inkscape:window-x="0"
     inkscape:window-y="0"
     inkscape:window-maximized="1"
     inkscape:current-layer="layer1" /><defs
     id="defs1"><inkscape:path-effect
       effect="perspective-envelope"
       up_left_point="762.78421,355.0786"
       up_right_point="795.16421,359.27463"
       down_left_point="764.88222,392.85347"
       down_right_point="794.26507,403.94295"
       id="path-effect72"
       is_visible="true"
       lpeversion="1"
       deform_type="perspective"
       horizontal_mirror="false"
       vertical_mirror="false"
       overflow_perspective="false" /><clipPath
       clipPathUnits="userSpaceOnUse"
       id="clipPath1397"><path
         style="fill:#545a78;fill-opacity:1;stroke:#1a1a1a;stroke-width:47.6348;stroke-linecap:round;stroke-linejoin:round;stroke-dasharray:none;stroke-opacity:1"
         d="M 1323.596,-16.160101 V 995.39713 H 577.70436 V -14.01733 Z"
         id="path1397" /></clipPath></defs><g
     inkscape:label="Layer 1"
     inkscape:groupmode="layer"
     id="layer1"
     transform="translate(466.10365,-65.63307)"><g
       id="g80"
       inkscape:export-filename="g80.webp"
       inkscape:export-xdpi="98.684471"
       inkscape:export-ydpi="98.684471"><rect
         style="fill:none;fill-opacity:1;stroke:none;stroke-width:6.96386;stroke-linecap:round;stroke-linejoin:round;stroke-dasharray:none;stroke-opacity:1"
         id="rect78"
         width="249.03613"
         height="249.03613"
         x="-464.43744"
         y="67.299301"
         ry="11.669514" /><g
         id="g74"><path
           style="fill:#a79e92;fill-opacity:1;stroke:#1a1a1a;stroke-width:9;stroke-linecap:round;stroke-linejoin:round;stroke-dasharray:none"
           d="m -433.8831,128.03488 -18.35348,97.47734 25.74907,18.71718 169.57746,0.2884 31.43527,-18.16902 -15.57344,-91.99865 -12.11267,-8.07512 z"
           id="path3" /><path
           style="fill:#a79e92;fill-opacity:1;stroke:#1a1a1a;stroke-width:9;stroke-linecap:round;stroke-linejoin:round;stroke-dasharray:none"
           d="m -452.44324,230.67474 2.59557,19.89939 15.42925,14.70825 c 58.37272,5.33794 126.5394,-0.41773 182.98791,1.15359 l 25.82136,-12.47637 1.19157,-22.52499 -31.60876,17.63973 -170.46117,0.4904 z"
           id="path4"
           sodipodi:nodetypes="ccccccccc" /><path
           style="fill:#e3dbdb;fill-opacity:1;stroke:#1a1a1a;stroke-width:9;stroke-linecap:round;stroke-linejoin:round;stroke-dasharray:none"
           d="m -359.69103,234.44042 104.12248,-44.22328 -0.93517,-12.26463 -100.33233,35.07553 z"
           id="path43"
           sodipodi:nodetypes="ccccc" /><path
           style="fill:#e3dbdb;fill-opacity:1;stroke:#1a1a1a;stroke-width:9;stroke-linecap:round;stroke-linejoin:round;stroke-dasharray:none"
           d="m -361.32245,234.84828 -50.98186,-17.74169 -1.22357,-18.35348 2.85499,-19.37311 13.45921,-11.21601 32.01661,10.60423 c 0,0 7.34139,15.09063 7.13746,15.90634 -0.20393,0.81571 -3.26284,40.17372 -3.26284,40.17372 z"
           id="path44" /><path
           style="fill:#f37d3d;fill-opacity:1;stroke:#1a1a1a;stroke-width:4;stroke-linecap:round;stroke-linejoin:round;stroke-dasharray:none"
           d="m -401.17719,209.20955 7.9604,1.04354 8.03587,7.00135 12.55502,1.61642 3.08911,-8.05741 -2.70202,-11.50207 3.21788,-8.27084 -8.30951,-1.59959 -6.48052,-7.22795 -11.74249,-1.84315 -1.81563,8.65085 -5.37305,6.17402 3.27262,6.88283 z"
           id="path45"
           sodipodi:nodetypes="cccccccccccccc" /><path
           style="fill:#e3dbdb;fill-opacity:1;stroke:#1a1a1a;stroke-width:9;stroke-linecap:round;stroke-linejoin:round;stroke-dasharray:none"
           d="m -415.02025,197.67367 -2.73977,-24.08115 14.41985,-16.15023 102.95773,-40.37559 32.30047,9.5171 14.41985,22.20658 -0.5768,27.39771 -104.11132,33.74246 2.45137,-16.72703 -8.94031,-15.42924 -33.45404,-8.65191 -11.53589,10.23809 z"
           id="path46"
           sodipodi:nodetypes="ccccccccccccc" /><path
           style="fill:#e3dbdb;fill-opacity:1;stroke:#1a1a1a;stroke-width:4;stroke-linecap:round;stroke-linejoin:round;stroke-dasharray:none"
           d="m -376.98897,161.38088 3.46077,-4.18175 4.47015,0.86519 c 0,0 3.46077,-5.47955 4.47016,-4.90275 1.00938,0.57679 3.89335,1.44198 3.89335,1.44198 l 4.03756,-5.33534 7.49833,0.72099 5.91214,-6.34473 6.05633,1.44198 6.20054,-4.61435 5.76794,1.44198 2.59557,-5.76794 3.60497,1.29779 1.73038,-6.34473 9.2287,2.45137 2.73977,-5.47954 3.74917,2.01878 4.32595,-3.74916"
           id="path53" /><path
           style="fill:#e3dbdb;fill-opacity:1;stroke:#1a1a1a;stroke-width:4;stroke-linecap:round;stroke-linejoin:round;stroke-dasharray:none"
           d="m -361.49048,169.33405 3.46077,-4.18175 4.47015,0.86519 c 0,0 3.46077,-5.47955 4.47016,-4.90275 1.00938,0.57679 3.89335,1.44198 3.89335,1.44198 l 4.03756,-5.33534 7.49833,0.72099 5.91214,-6.34473 6.05633,1.44198 6.20054,-4.61435 5.76794,1.44198 2.59557,-5.76794 3.60497,1.29779 1.73038,-6.34473 9.2287,2.45137 2.73977,-5.47954 3.74917,2.01878 4.32595,-3.74916"
           id="path54" /><path
           style="fill:#e3dbdb;fill-opacity:1;stroke:#1a1a1a;stroke-width:4;stroke-linecap:round;stroke-linejoin:round;stroke-dasharray:none"
           d="m -348.84698,177.899 3.46077,-4.18175 4.47015,0.86519 c 0,0 3.46077,-5.47955 4.47016,-4.90275 1.00938,0.57679 3.89335,1.44198 3.89335,1.44198 l 4.03756,-5.33534 7.49833,0.72099 5.91214,-6.34473 6.05633,1.44198 6.20054,-4.61435 5.76794,1.44198 2.59557,-5.76794 3.60497,1.29779 1.73038,-6.34473 9.2287,2.45137 2.73977,-5.47954 3.74917,2.01878 4.32595,-3.74916"
           id="path55" /><path
           style="fill:#e3dbdb;fill-opacity:1;stroke:#1a1a1a;stroke-width:4;stroke-linecap:round;stroke-linejoin:round;stroke-dasharray:none"
           d="m -342.72916,193.80534 3.46077,-4.18175 4.47015,0.86519 c 0,0 3.46077,-5.47955 4.47016,-4.90275 1.00938,0.57679 3.89335,1.44198 3.89335,1.44198 l 4.03756,-5.33534 7.49833,0.72099 5.91214,-6.34473 6.05633,1.44198 6.20054,-4.61435 5.76794,1.44198 2.59557,-5.76794 3.60497,1.29779 1.73038,-6.34473 9.2287,2.45137 2.73977,-5.47954 3.74917,2.01878 4.32595,-3.74916"
           id="path56" /></g></g><g
       id="g81"
       inkscape:export-filename="g81.webp"
       inkscape:export-xdpi="98.684471"
       inkscape:export-ydpi="98.684471"><rect
         style="fill:none;fill-opacity:1;stroke:none;stroke-width:6.96386;stroke-linecap:round;stroke-linejoin:round;stroke-dasharray:none;stroke-opacity:1"
         id="rect77"
         width="249.03613"
         height="249.03613"
         x="-160.17761"
         y="67.299301"
         ry="11.669514" /><g
         id="g75"><path
           style="fill:#a79e92;fill-opacity:1;stroke:#1a1a1a;stroke-width:9;stroke-linecap:round;stroke-linejoin:round;stroke-dasharray:none"
           d="m -131.2547,128.03488 -18.35348,97.47734 25.74907,18.71718 169.577464,0.2884 31.43527,-18.16902 -15.57344,-91.99865 -12.11267,-8.07512 z"
           id="path5" /><path
           style="fill:#a79e92;fill-opacity:1;stroke:#1a1a1a;stroke-width:9;stroke-linecap:round;stroke-linejoin:round;stroke-dasharray:none"
           d="m -149.81484,230.67474 2.59557,19.89939 15.42925,14.70825 c 58.372724,5.33794 126.5394044,-0.41773 182.987914,1.15359 l 25.82136,-12.47637 1.19157,-22.52499 -31.60876,17.63973 -170.461174,0.4904 z"
           id="path6"
           sodipodi:nodetypes="ccccccccc" /><path
           style="fill:#e3dbdb;fill-opacity:1;stroke:#1a1a1a;stroke-width:9;stroke-linecap:round;stroke-linejoin:round;stroke-dasharray:none"
           d="m -64.698357,236.08249 104.12248,-44.22328 -0.93517,-12.26463 -100.33233,35.07553 z"
           id="path11"
           sodipodi:nodetypes="ccccc" /><path
           style="fill:#e3dbdb;fill-opacity:1;stroke:#1a1a1a;stroke-width:9;stroke-linecap:round;stroke-linejoin:round;stroke-dasharray:none"
           d="m -66.329777,236.49035 -50.981863,-17.74169 -1.22357,-18.35348 2.85499,-19.37311 13.4592,-11.21601 32.016623,10.60423 c 0,0 7.34139,15.09063 7.13746,15.90634 -0.20393,0.81571 -3.26284,40.17372 -3.26284,40.17372 z"
           id="path12" /><path
           style="fill:#f37d3d;fill-opacity:1;stroke:#1a1a1a;stroke-width:9;stroke-linecap:round;stroke-linejoin:round;stroke-dasharray:none"
           d="m -120.02758,199.31574 -2.73977,-24.08115 14.41985,-16.15023 102.9577328,-40.37559 32.3004702,9.5171 14.41985,22.20658 -0.5768,27.39771 -104.11132,33.74246 2.45137,-16.72703 -8.94031,-15.42924 -33.454053,-8.65191 -11.53588,10.23809 z"
           id="path14"
           sodipodi:nodetypes="ccccccccccccc" /><path
           style="fill:none;fill-opacity:1;stroke:#feb273;stroke-width:4;stroke-linecap:round;stroke-linejoin:round;stroke-dasharray:none;stroke-opacity:1"
           d="m -58.784457,203.86195 18.35347,-37.31873 -5.50604,-8.76888 -29.97734,-7.74925"
           id="path15" /><path
           style="fill:none;fill-opacity:1;stroke:#feb273;stroke-width:4;stroke-linecap:round;stroke-linejoin:round;stroke-dasharray:none;stroke-opacity:1"
           d="m -104.05637,160.83325 21.208463,4.69033 3.26284,8.97281"
           id="path16" /><path
           style="fill:none;fill-opacity:1;stroke:#feb273;stroke-width:4;stroke-linecap:round;stroke-linejoin:round;stroke-dasharray:none;stroke-opacity:1"
           d="m -88.761797,153.28793 25.08308,15.49849 -1.22357,18.96526"
           id="path17" /><path
           style="fill:none;fill-opacity:1;stroke:#feb273;stroke-width:4;stroke-linecap:round;stroke-linejoin:round;stroke-dasharray:none;stroke-opacity:1"
           d="m -37.983857,199.17162 17.94562,-43.23263 c 0,0 -3.26284,-8.36103 -4.28248,-8.36103 -1.01963,0 -30.18127,-5.9139 -30.18127,-5.9139"
           id="path18" /><path
           style="fill:none;fill-opacity:1;stroke:#feb273;stroke-width:4;stroke-linecap:round;stroke-linejoin:round;stroke-dasharray:none;stroke-opacity:1"
           d="m -34.109237,131.67162 23.85952,3.87462 6.5256798,16.3142 -15.2945598,43.23263"
           id="path19" /><path
           style="fill:none;fill-opacity:1;stroke:#feb273;stroke-width:4;stroke-linecap:round;stroke-linejoin:round;stroke-dasharray:none;stroke-opacity:1"
           d="m -8.6182972,122.29095 21.6163202,9.78852 2.44713,19.9849 -16.7220602,37.1148"
           id="path20" /><path
           style="fill:none;fill-opacity:1;stroke:#feb273;stroke-width:4;stroke-linecap:round;stroke-linejoin:round;stroke-dasharray:none;stroke-opacity:1"
           d="m 13.201943,184.69277 13.05136,-25.28701 5.9139,-20.18883"
           id="path21" /><path
           style="fill:none;fill-opacity:1;stroke:#feb273;stroke-width:4;stroke-linecap:round;stroke-linejoin:round;stroke-dasharray:none;stroke-opacity:1"
           d="m 27.884723,179.39065 12.23565,-25.69486"
           id="path22" /><path
           style="fill:none;fill-opacity:1;stroke:#1a1a1a;stroke-width:9;stroke-linecap:round;stroke-linejoin:round;stroke-dasharray:none"
           d="m -120.02758,199.31574 -2.73977,-24.08115 14.41985,-16.15023 102.9577328,-40.37559 32.3004702,9.5171 14.41985,22.20658 -0.5768,27.39771 -104.11132,33.74246 2.45137,-16.72703 -8.94031,-15.42924 -33.454053,-8.65191 -11.53588,10.23809 z"
           id="path57"
           sodipodi:nodetypes="ccccccccccccc" /><path
           style="fill:#e3dbdb;fill-opacity:1;stroke:none;stroke-width:4;stroke-linecap:round;stroke-linejoin:round;stroke-dasharray:none;stroke-opacity:1"
           d="m -70.392771,230.30671 5.822361,1.01745 7.150214,-3.21186 0.904922,-10.52775 -6.321756,1.19807 -7.8512,-2.65106 z"
           id="path58"
           sodipodi:nodetypes="ccccccc" /><path
           style="fill:#f37d3d;fill-opacity:1;stroke:#1a1a1a;stroke-width:3.53262;stroke-linecap:round;stroke-linejoin:round;stroke-dasharray:none"
           d="m -87.589783,216.09072 2.709776,-6.5522 7.809416,-5.25475 4.248705,-10.34075 -6.16738,-4.47695 -10.429616,-0.32412 -6.320015,-4.63559 -3.26392,6.72291 -7.647203,3.87615 -4.25639,9.59578 6.96471,3.52624 4.038672,5.99479 6.619535,-1.21849 z"
           id="path59"
           sodipodi:nodetypes="cccccccccccccc" /><path
           style="fill:#b6b95d;fill-opacity:1;stroke:#1a1a1a;stroke-width:2;stroke-linecap:round;stroke-linejoin:round;stroke-dasharray:none;stroke-opacity:1"
           d="m -93.204533,213.02657 c 0,0 -3.029927,-8.60243 -3.534617,-8.60243 -0.5047,0 -8.94031,-8.50771 -8.94031,-8.50771 l -3.53286,8.21931 6.45382,3.55686 3.700535,5.77957 z"
           id="path60"
           sodipodi:nodetypes="csccccc" /></g></g><g
       id="g79"
       inkscape:export-filename="g79.webp"
       inkscape:export-xdpi="98.684471"
       inkscape:export-ydpi="98.684471"><rect
         style="fill:none;fill-opacity:1;stroke:none;stroke-width:6.96386;stroke-linecap:round;stroke-linejoin:round;stroke-dasharray:none;stroke-opacity:1"
         id="rect75"
         width="249.03613"
         height="249.03613"
         x="-463.67972"
         y="365.17099"
         ry="11.669514" /><g
         id="g73"><path
           style="fill:#a79e92;fill-opacity:1;stroke:#1a1a1a;stroke-width:9;stroke-linecap:round;stroke-linejoin:round;stroke-dasharray:none"
           d="m -433.8831,418.42763 -18.35348,97.47734 25.74907,18.71718 169.57746,0.2884 31.43527,-18.16902 -15.57344,-91.99865 -12.11267,-8.07512 z"
           id="path7" /><path
           style="fill:#a79e92;fill-opacity:1;stroke:#1a1a1a;stroke-width:9;stroke-linecap:round;stroke-linejoin:round;stroke-dasharray:none"
           d="m -452.44324,521.06749 2.59557,19.89939 15.42925,14.70825 c 58.37272,5.33794 126.5394,-0.41773 182.98791,1.15359 l 25.82136,-12.47637 1.19157,-22.52499 -31.60876,17.63973 -170.46117,0.4904 z"
           id="path8"
           sodipodi:nodetypes="ccccccccc" /><path
           style="fill:#27291d;fill-opacity:1;stroke:#1a1a1a;stroke-width:9;stroke-linecap:round;stroke-linejoin:round;stroke-dasharray:none"
           d="m -361.8967,511.82643 104.12248,-44.22328 -0.93517,-12.26463 -100.33233,35.07553 z"
           id="path23"
           sodipodi:nodetypes="ccccc" /><path
           style="fill:#d8ccb8;fill-opacity:1;stroke:#1a1a1a;stroke-width:9;stroke-linecap:round;stroke-linejoin:round;stroke-dasharray:none"
           d="m -363.52812,512.23429 -50.98186,-17.74169 -1.22357,-18.35348 2.85499,-19.37311 13.45921,-11.21601 32.01661,10.60423 c 0,0 7.34139,15.09063 7.13746,15.90634 -0.20393,0.81571 -3.26284,40.17372 -3.26284,40.17372 z"
           id="path24" /><path
           style="fill:#27291d;fill-opacity:1;stroke:#1a1a1a;stroke-width:9;stroke-linecap:round;stroke-linejoin:round;stroke-dasharray:none"
           d="m -417.22592,475.05968 -2.73977,-24.08115 14.41985,-16.15023 102.95773,-40.37559 32.30047,9.5171 14.41985,22.20658 -0.5768,27.39771 -104.11132,33.74246 2.45137,-16.72703 -8.94031,-15.42924 -33.45404,-8.65191 -11.53589,10.23809 z"
           id="path26"
           sodipodi:nodetypes="ccccccccccccc" /><path
           style="fill:#4c4e41;fill-opacity:1;stroke:#4c4e41;stroke-width:4;stroke-linecap:round;stroke-linejoin:round;stroke-dasharray:none;stroke-opacity:1"
           d="m -360.85242,459.91884 5.04695,-9.22871 11.53588,0.5768 -1.29779,-6.05634 10.2381,-2.16298 3.46076,-8.94031 18.60161,4.03756 4.32596,-7.49832 8.07511,-1.73038 4.32596,-6.20054 8.07512,3.89336 10.23809,-6.05634 4.47015,1.73039 3.89336,-10.95909 -1.87458,-8.94031 -11.10328,-0.43259 2.73977,6.63313 -8.65191,0.72099 0.2884,5.19115 -14.70825,-3.46077 v 9.8055 l -6.77733,-0.72099 1.44198,5.47954 -11.24748,-1.87458 1.44198,4.32596 -12.54527,-2.59558 -4.90275,6.77733 -15.86183,2.88397 -2.16298,6.48894 -13.26627,1.00939 v 9.6613 z"
           id="path34" /><path
           style="fill:none;fill-opacity:1;stroke:#1a1a1a;stroke-width:9;stroke-linecap:round;stroke-linejoin:round;stroke-dasharray:none"
           d="m -417.22592,475.05968 -2.73977,-24.08115 14.41985,-16.15023 102.95773,-40.37559 32.30047,9.5171 14.41985,22.20658 -0.5768,27.39771 -104.11132,33.74246 2.45137,-16.72703 -8.94031,-15.42924 -33.45404,-8.65191 -11.53589,10.23809 z"
           id="path61"
           sodipodi:nodetypes="ccccccccccccc" /><path
           style="fill:#a8c96a;fill-opacity:1;stroke:#1a1a1a;stroke-width:4;stroke-linecap:round;stroke-linejoin:round;stroke-dasharray:none"
           d="m -372.89309,487.22429 -7.9604,1.04354 -8.03587,7.00135 -5.92189,-7.17969 -9.72224,0.7387 2.70202,-11.50207 -3.21788,-8.27084 8.30951,-1.59959 6.48052,-7.22795 15.34745,1.90601 -1.64513,9.08345 5.22885,1.99226 -3.27262,6.88283 z"
           id="path62"
           sodipodi:nodetypes="cccccccccccccc" /><path
           style="fill:#27291d;fill-opacity:1;stroke:none;stroke-width:2;stroke-linecap:round;stroke-linejoin:round;stroke-dasharray:none;stroke-opacity:1"
           d="m -355.16709,494.39063 c -0.20393,-0.50982 0,-14.17296 0,-14.17296 l 94.25793,-31.1247 -1.94668,13.19417 z"
           id="path63" /></g></g><g
       id="g78"
       inkscape:export-filename="g78.webp"
       inkscape:export-xdpi="98.684471"
       inkscape:export-ydpi="98.684471"><rect
         style="fill:none;fill-opacity:1;stroke:none;stroke-width:6.96386;stroke-linecap:round;stroke-linejoin:round;stroke-dasharray:none;stroke-opacity:1"
         id="rect76"
         width="249.03613"
         height="249.03613"
         x="-159.41988"
         y="365.17099"
         ry="11.669514" /><g
         id="g72"><path
           style="fill:#a79e92;fill-opacity:1;stroke:#1a1a1a;stroke-width:9;stroke-linecap:round;stroke-linejoin:round;stroke-dasharray:none"
           d="m -131.2547,418.42763 -18.35348,97.47734 25.74907,18.71718 169.577464,0.2884 31.43527,-18.16902 -15.57344,-91.99865 -12.11267,-8.07512 z"
           id="path9" /><path
           style="fill:#a79e92;fill-opacity:1;stroke:#1a1a1a;stroke-width:9;stroke-linecap:round;stroke-linejoin:round;stroke-dasharray:none"
           d="m -149.81484,521.06749 2.59557,19.89939 15.42925,14.70825 c 58.372724,5.33794 126.5394044,-0.41773 182.987914,1.15359 l 25.82136,-12.47637 1.19157,-22.52499 -31.60876,17.63973 -170.461174,0.4904 z"
           id="path10"
           sodipodi:nodetypes="ccccccccc" /><path
           style="fill:#1d1e28;fill-opacity:1;stroke:#1a1a1a;stroke-width:9;stroke-linecap:round;stroke-linejoin:round;stroke-dasharray:none"
           d="m -56.821166,511.82643 104.12248,-44.22328 -0.93517,-12.26463 -100.33233,35.07553 z"
           id="path64"
           sodipodi:nodetypes="ccccc" /><path
           style="fill:#d8ccb8;fill-opacity:1;stroke:#1a1a1a;stroke-width:9;stroke-linecap:round;stroke-linejoin:round;stroke-dasharray:none"
           d="m -58.452586,512.23429 -50.981864,-17.74169 -1.22357,-18.35348 2.85499,-19.37311 13.459214,-11.21601 32.01661,10.60423 c 0,0 7.34139,15.09063 7.13746,15.90634 -0.20393,0.81571 -3.26284,40.17372 -3.26284,40.17372 z"
           id="path65" /><path
           style="fill:#1d1e28;fill-opacity:1;stroke:#1a1a1a;stroke-width:9;stroke-linecap:round;stroke-linejoin:round;stroke-dasharray:none"
           d="m -112.15039,475.05968 -2.73977,-24.08115 14.41985,-16.15023 102.9577344,-40.37559 32.3004696,9.5171 14.41985,22.20658 -0.5768,27.39771 -104.11132,33.74246 2.45137,-16.72703 -8.94031,-15.42924 -33.45404,-8.65191 -11.535894,10.23809 z"
           id="path66"
           sodipodi:nodetypes="ccccccccccccc" /><path
           style="fill:#41444e;fill-opacity:1;stroke:#41444e;stroke-width:4;stroke-linecap:round;stroke-linejoin:round;stroke-dasharray:none;stroke-opacity:1"
           d="m -55.776886,459.91884 5.04695,-9.22871 11.53588,0.5768 -1.29779,-6.05634 10.2381,-2.16298 3.46076,-8.94031 18.6016104,4.03756 4.32596,-7.49832 8.07511,-1.73038 4.32596,-6.20054 8.0751196,3.89336 10.23809,-6.05634 4.47015,1.73039 3.89336,-10.95909 -1.87458,-8.94031 -11.10328,-0.43259 2.73977,6.63313 -8.65191,0.72099 0.2884,5.19115 -14.7082496,-3.46077 v 9.8055 l -6.77733,-0.72099 1.44198,5.47954 -11.2474804,-1.87458 1.44198,4.32596 -12.54527,-2.59558 -4.90275,6.77733 -15.86183,2.88397 -2.16298,6.48894 -13.26627,1.00939 v 9.6613 z"
           id="path67" /><path
           style="fill:none;fill-opacity:1;stroke:#1a1a1a;stroke-width:9;stroke-linecap:round;stroke-linejoin:round;stroke-dasharray:none"
           d="m -112.15039,475.05968 -2.73977,-24.08115 14.41985,-16.15023 102.9577344,-40.37559 32.3004696,9.5171 14.41985,22.20658 -0.5768,27.39771 -104.11132,33.74246 2.45137,-16.72703 -8.94031,-15.42924 -33.45404,-8.65191 -11.535894,10.23809 z"
           id="path68"
           sodipodi:nodetypes="ccccccccccccc" /><path
           style="fill:#c8594d;fill-opacity:1;stroke:#1a1a1a;stroke-width:4;stroke-linecap:round;stroke-linejoin:round;stroke-dasharray:none"
           d="m -67.817556,487.22429 -7.9604,1.04354 -8.03587,7.00135 -5.92189,-7.17969 -9.72224,0.7387 2.70202,-11.50207 -3.21788,-8.27084 8.30951,-1.59959 6.48052,-7.22795 15.34745,1.90601 -1.64513,9.08345 5.22885,1.99226 -3.27262,6.88283 z"
           id="path69"
           sodipodi:nodetypes="cccccccccccccc" /><path
           style="fill:#1d1e28;fill-opacity:1;stroke:none;stroke-width:2;stroke-linecap:round;stroke-linejoin:round;stroke-dasharray:none;stroke-opacity:1"
           d="m -50.091556,494.39063 c -0.20393,-0.50982 0,-14.17296 0,-14.17296 l 94.25793,-31.1247 -1.94668,13.19417 z"
           id="path70" /></g></g></g></svg>
