<?xml version="1.0" encoding="UTF-8" standalone="no"?>
<!-- Created with Inkscape (http://www.inkscape.org/) -->

<svg
   width="1196.1826"
   height="924.13849"
   viewBox="0 0 1196.1826 924.13849"
   version="1.1"
   id="svg1"
   inkscape:version="1.4.3 (0d15f75042, 2025-12-25)"
   xml:space="preserve"
   sodipodi:docname="teachers.svg"
   xmlns:inkscape="http://www.inkscape.org/namespaces/inkscape"
   xmlns:sodipodi="http://sodipodi.sourceforge.net/DTD/sodipodi-0.dtd"
   xmlns="http://www.w3.org/2000/svg"
   xmlns:svg="http://www.w3.org/2000/svg"><sodipodi:namedview
     id="namedview1"
     pagecolor="#3a3a3a"
     bordercolor="#a6a6a6"
     borderopacity="1"
     inkscape:showpageshadow="0"
     inkscape:pageopacity="0"
     inkscape:pagecheckerboard="1"
     inkscape:deskcolor="#1a1a1a"
     inkscape:document-units="px"
     guidecolor="#91a666"
     guideopacity="0.6"
     guidehicolor="#a66966"
     guidehiopacity="0.49803922"
     inkscape:zoom="0.5"
     inkscape:cx="352"
     inkscape:cy="116"
     inkscape:window-width="1432"
     inkscape:window-height="876"
     inkscape:window-x="0"
     inkscape:window-y="0"
     inkscape:window-maximized="1"
     inkscape:current-layer="layer1" /><defs
     id="defs1"><inkscape:path-effect
       effect="perspective-envelope"
       up_left_point="762.78421,355.0786"
       up_right_point="795.16421,359.27463"
       down_left_point="764.88222,392.85347"
       down_right_point="794.26507,403.94295"
       id="path-effect72"
       is_visible="true"
       lpeversion="1"
       deform_type="perspective"
       horizontal_mirror="false"
       vertical_mirror="false"
       overflow_perspective="false" /><clipPath
       clipPathUnits="userSpaceOnUse"
       id="clipPath1397"><path
         style="fill:#545a78;fill-opacity:1;stroke:#1a1a1a;stroke-width:47.6348;stroke-linecap:round;stroke-linejoin:round;stroke-dasharray:none;stroke-opacity:1"
         d="M 1323.596,-16.160101 V 995.39713 H 577.70436 V -14.01733 Z"
         id="path1397" /></clipPath><inkscape:path-effect
       effect="perspective-envelope"
       up_left_point="762.78421,355.0786"
       up_right_point="795.16421,359.27463"
       down_left_point="764.88222,392.85347"
       down_right_point="794.26507,403.94295"
       id="path-effect72-3"
       is_visible="true"
       lpeversion="1"
       deform_type="perspective"
       horizontal_mirror="false"
       vertical_mirror="false"
       overflow_perspective="false" /><clipPath
       clipPathUnits="userSpaceOnUse"
       id="clipPath1397-6"><path
         style="fill:#545a78;fill-opacity:1;stroke:#1a1a1a;stroke-width:47.6348;stroke-linecap:round;stroke-linejoin:round;stroke-dasharray:none;stroke-opacity:1"
         d="M 1323.596,-16.160101 V 995.39713 H 577.70436 V -14.01733 Z"
         id="path1397-0" /></clipPath><inkscape:path-effect
       effect="perspective-envelope"
       up_left_point="762.78421,355.0786"
       up_right_point="795.16421,359.27463"
       down_left_point="764.88222,392.85347"
       down_right_point="794.26507,403.94295"
       id="path-effect72-7"
       is_visible="true"
       lpeversion="1"
       deform_type="perspective"
       horizontal_mirror="false"
       vertical_mirror="false"
       overflow_perspective="false" /><clipPath
       clipPathUnits="userSpaceOnUse"
       id="clipPath1397-9"><path
         style="fill:#545a78;fill-opacity:1;stroke:#1a1a1a;stroke-width:47.6348;stroke-linecap:round;stroke-linejoin:round;stroke-dasharray:none;stroke-opacity:1"
         d="M 1323.596,-16.160101 V 995.39713 H 577.70436 V -14.01733 Z"
         id="path1397-2" /></clipPath></defs><g
     inkscape:label="Layer 1"
     inkscape:groupmode="layer"
     id="layer1"
     transform="translate(571.77278,-204.96481)"><path
       style="fill:#fefefe;fill-opacity:1;stroke:#1a1a1a;stroke-width:9;stroke-linecap:round;stroke-linejoin:round;stroke-dasharray:none"
       d="m -48.27587,1129.1033 -18.12991,-98.4853 -22.43203,-39.96983 c 0,0 -358.50453,3.6707 -358.09668,2.03928 0.40786,-1.63142 -6.17069,136.41585 -6.17069,136.41585 z"
       id="path1"
       sodipodi:nodetypes="cccscc" /><path
       style="fill:none;stroke:#ff00ff;stroke-width:9;stroke-linecap:round;stroke-linejoin:round;stroke-dasharray:none"
       d="m -85.84873,1031.3989 -206.50872,11.4547 -157.83988,-9.7885"
       id="path2"
       sodipodi:nodetypes="ccc" /><path
       style="fill:#2a2b2a;fill-opacity:1;stroke:#1a1a1a;stroke-width:9;stroke-linecap:round;stroke-linejoin:round;stroke-dasharray:none"
       d="m -68.1408,1129.1033 -14.001671,-97.9407 -174.772739,11.145 -207.19033,-12.6436 -6.53915,99.4393 z"
       id="path7"
       sodipodi:nodetypes="cccccc" /><path
       style="fill:#2a2b2a;fill-opacity:1;stroke:#1a1a1a;stroke-width:9;stroke-linecap:round;stroke-linejoin:round;stroke-dasharray:none;stroke-opacity:1"
       d="m -83.576871,1029.664 17.5378,-2.0392 -9.7885,-48.5348 -384.199419,-0.8157 2.44713,18.3535 -8.56496,30.997 209.63747,14.6828 z"
       id="path8" /><path
       style="fill:none;stroke:#1a1a1a;stroke-width:9;stroke-linecap:round;stroke-linejoin:round;stroke-dasharray:none;stroke-opacity:1"
       d="m -441.67352,1006.4163 150.49849,4.4864 187.20546,-6.9336"
       id="path9" /><path
       style="fill:#2a2b2a;fill-opacity:1;stroke:#1a1a1a;stroke-width:9;stroke-linecap:round;stroke-linejoin:round;stroke-dasharray:none;stroke-opacity:1"
       d="m -359.10838,1006.961 -32.30046,9.8054 -15.57344,12.9779 15.57344,36.0496 33.16565,-22.4949 40.66399,-0.8652 50.46947,32.8772 c 0,0 24.22536,-37.78 23.93696,-36.6264 -0.2884,1.1536 -37.78001,-30.2817 -37.78001,-30.2817 l -29.1281,-6.9215 z"
       id="path4" /><path
       style="fill:none;stroke:#1a1a1a;stroke-width:8.90945;stroke-linecap:round;stroke-linejoin:round;stroke-dasharray:none;stroke-opacity:1"
       d="m -375.57012,1027.6957 33.88676,-12.3776 30.62056,2.196 23.6799,12.5773"
       id="path6" /><path
       style="fill:#2a2b2a;fill-opacity:1;stroke:#1a1a1a;stroke-width:9;stroke-linecap:round;stroke-linejoin:round;stroke-dasharray:none;stroke-opacity:1"
       d="m -355.33603,1045.3407 -3.87462,-23.8595 9.78852,-22.22811 40.7855,-1.4275 -10.60423,29.16161 0.61178,18.9653 z"
       id="path5" /><path
       style="fill:#cdced2;fill-opacity:1;stroke:#1a1a1a;stroke-width:9;stroke-linecap:round;stroke-linejoin:round;stroke-dasharray:none;stroke-opacity:1"
       d="m -72.52361,992.07567 23.85952,-6.32176 4.07855,-43.84441 -10.26397,-16.8533 -49.60429,-104.39972 -331.65658,89.97987 -20.18779,66.90811 378.95369,1.15359 z"
       id="path10" /><path
       style="fill:#fefefe;fill-opacity:1;stroke:#1a1a1a;stroke-width:9;stroke-linecap:round;stroke-linejoin:round;stroke-dasharray:none;stroke-opacity:1"
       d="m -84.3514,975.96539 23.04381,-17.94562"
       id="path11" /><path
       style="fill:none;fill-opacity:1;stroke:#1a1a1a;stroke-width:9;stroke-linecap:round;stroke-linejoin:round;stroke-dasharray:none;stroke-opacity:1"
       d="m -434.95679,978.12125 81.90475,-188.61165 163.80952,-234.75518 17.88061,-22.49497"
       id="path12" /><path
       style="fill:none;fill-opacity:1;stroke:#1a1a1a;stroke-width:9;stroke-linecap:round;stroke-linejoin:round;stroke-dasharray:none;stroke-opacity:1"
       d="m -366.3183,974.0837 85.36552,-178.80616 106.7069,-163.80951 39.222,-69.21529"
       id="path13" /><path
       style="fill:#fefefe;fill-opacity:1;stroke:#1a1a1a;stroke-width:9;stroke-linecap:round;stroke-linejoin:round;stroke-dasharray:none;stroke-opacity:1"
       d="m -163.28679,824.69404 70.94567,40.95237 54.07869,72.5481 32.44042,-66.20336 19.0342,-110.74446 -6.34473,-102.09255 -28.26291,-51.33467 -108.43729,-39.79879 -38.0684,-45.56673 -7.78672,0.86519 -3.74916,20.47619 -182.84372,261.8645 186.30448,30.57009 z"
       id="path14"
       sodipodi:nodetypes="cccccccccccccc" /><path
       style="fill:none;fill-opacity:1;stroke:#1a1a1a;stroke-width:9;stroke-linecap:round;stroke-linejoin:round;stroke-dasharray:none;stroke-opacity:1"
       d="m -151.09542,734.11162 30.03707,-64.85318 26.91843,-39.96979"
       id="path15"
       sodipodi:nodetypes="ccc" /><path
       style="fill:#adaeb3;fill-opacity:1;stroke:#acaeb4;stroke-width:9;stroke-linecap:round;stroke-linejoin:round;stroke-dasharray:none;stroke-opacity:1"
       d="m -96.1792,767.14364 42.00907,25.69486"
       id="path16" /><path
       style="fill:#adaeb3;fill-opacity:1;stroke:#acaeb4;stroke-width:9;stroke-linecap:round;stroke-linejoin:round;stroke-dasharray:none;stroke-opacity:1"
       d="m -114.94053,741.85663 65.2568,-36.29909"
       id="path17" /><path
       style="fill:#adaeb3;fill-opacity:1;stroke:#acaeb4;stroke-width:9;stroke-linecap:round;stroke-linejoin:round;stroke-dasharray:none;stroke-opacity:1"
       d="m -114.12482,684.75693 35.89124,-34.25982 39.56194,-21.61631"
       id="path18" /><path
       style="fill:#adaeb3;fill-opacity:1;stroke:#acaeb4;stroke-width:9;stroke-linecap:round;stroke-linejoin:round;stroke-dasharray:none;stroke-opacity:1"
       d="m -173.26379,736.96237 25.28701,-94.2145"
       id="path19" /><path
       style="fill:#fefefe;fill-opacity:1;stroke:#1a1a1a;stroke-width:9;stroke-linecap:round;stroke-linejoin:round;stroke-dasharray:none;stroke-opacity:1"
       d="m -463.2197,831.61557 -46.2135,25.52592 -57.60943,15.42645 48.4507,-133.23942 6.34474,6.92152 -7.49833,-33.45405 15.57344,-6.92153 28.83971,-73.25284 54.21864,-32.30047 62.87055,-21.91818 36.91482,-29.41649 -0.5768,27.68611 -2.88397,49.0275 17.30383,94.01743 -73.82964,116.5124 z"
       id="path25"
       sodipodi:nodetypes="cccccccccccccccc" /><path
       style="fill:#fdc491;fill-opacity:1;stroke:#1a1a1a;stroke-width:9;stroke-linecap:round;stroke-linejoin:round;stroke-dasharray:none;stroke-opacity:1"
       d="m -57.02512,913.15572 -67.29607,38.33837 -29.77341,6.32176 -112.77191,-27.93807 -91.76737,-52.20544 -54.8565,-39.35801 -50.57402,-5.30211 59.34291,-58.73112 144.78852,34.8716 101.96374,17.12991 66.423323,42.19829 z"
       id="path26"
       sodipodi:nodetypes="cccccccccccc" /><path
       style="fill:#fdc491;fill-opacity:1;stroke:#1a1a1a;stroke-width:9;stroke-linecap:round;stroke-linejoin:round;stroke-dasharray:none;stroke-opacity:1"
       d="m -293.17316,917.64213 -106.57809,-2.52706 -130.79351,31.07691 -27.85008,-41.1064 -8.87805,-30.57241 62.52972,-19.545 56.58512,-22.97559 41.19335,9.78852 z"
       id="path27"
       sodipodi:nodetypes="ccccccccc" /><path
       style="fill:#fec28e;fill-opacity:1;stroke:#1a1a1a;stroke-width:9;stroke-linecap:round;stroke-linejoin:round;stroke-dasharray:none;stroke-opacity:1"
       d="m -236.82803,810.27419 27.10932,-35.18444 17.88061,-22.49497 56.81422,-22.49497 5.47954,20.76459 -51.91146,9.5171 53.64184,-9.22871 11.24749,20.47619 -57.96781,5.19115 57.67941,-5.19115 -1.73038,25.95574 -65.46613,7.20992 47.87391,-5.19114 -2.30718,14.41985 -36.04963,8.9403 z"
       id="path28" /><path
       style="fill:none;fill-opacity:1;stroke:#1a1a1a;stroke-width:9;stroke-linecap:round;stroke-linejoin:round;stroke-dasharray:none;stroke-opacity:1"
       d="m -432.15729,797.8936 -4.24149,-142.77702"
       id="path21"
       sodipodi:nodetypes="cc" /><path
       style="fill:none;fill-opacity:1;stroke:#1a1a1a;stroke-width:9;stroke-linecap:round;stroke-linejoin:round;stroke-dasharray:none;stroke-opacity:1"
       d="m -436.11038,737.02134 -19.03421,-31.14688 -9.2287,-52.48826"
       id="path22" /><path
       style="fill:none;fill-opacity:1;stroke:#acaeb4;stroke-width:9;stroke-linecap:round;stroke-linejoin:round;stroke-dasharray:none;stroke-opacity:1"
       d="m -450.35529,791.11803 -34.60764,-63.44734"
       id="path23" /><path
       style="fill:none;fill-opacity:1;stroke:#acaeb4;stroke-width:9;stroke-linecap:round;stroke-linejoin:round;stroke-dasharray:none;stroke-opacity:1"
       d="m -458.94323,806.14367 -49.02749,-33.45406"
       id="path24" /><path
       style="fill:none;fill-opacity:1;stroke:#1a1a1a;stroke-width:9;stroke-linecap:round;stroke-linejoin:round;stroke-dasharray:none;stroke-opacity:1"
       d="m -349.865,777.34001 -16.72205,-53.429 -9.38067,-85.64955 19.9849,-57.91541"
       id="path20" /><path
       style="fill:#2a2b2a;fill-opacity:1;stroke:#1a1a1a;stroke-width:9;stroke-linecap:round;stroke-linejoin:round;stroke-dasharray:none;stroke-opacity:1"
       d="m -322.19355,616.47138 29.99329,8.94031 58.83299,-8.94031 -71.23406,102.95774 z"
       id="path29" /><path
       style="fill:#e19360;fill-opacity:1;stroke:#1a1a1a;stroke-width:9;stroke-linecap:round;stroke-linejoin:round;stroke-dasharray:none;stroke-opacity:1"
       d="m -323.76228,533.03488 c 0,0 0.40786,80.34743 1.63142,81.97885 1.22357,1.63142 30.58912,11.41994 30.58912,11.41994 l 61.17825,-8.97281 55.46828,-77.9003 -4.4864,-25.28701 z"
       id="path30" /><path
       style="fill:#fdc491;fill-opacity:1;stroke:#1a1a1a;stroke-width:9;stroke-linecap:round;stroke-linejoin:round;stroke-dasharray:none;stroke-opacity:1"
       d="m -270.44228,556.89672 -74.22961,-37.11481 -18.76133,-47.31118 -20.39275,-138.67069 103.59517,-28.142 113.38364,15.49849 8.565,99.51662 -6.1178,59.13897 -13.0514,28.95771 -69.3353,44.04834 z"
       id="path31" /><path
       style="fill:none;fill-opacity:1;stroke:#1a1a1a;stroke-width:9;stroke-linecap:round;stroke-linejoin:round;stroke-dasharray:none;stroke-opacity:1"
       d="m -302.72925,494.9656 28.55131,-6.34474 30.85848,0.2884 11.5359,4.32596"
       id="path32" /><path
       style="fill:none;fill-opacity:1;stroke:#1a1a1a;stroke-width:9;stroke-linecap:round;stroke-linejoin:round;stroke-dasharray:none;stroke-opacity:1"
       d="m -234.09076,455.16681 14.4199,17.30382 8.6519,21.62978"
       id="path33" /><path
       style="fill:none;fill-opacity:1;stroke:#1a1a1a;stroke-width:9;stroke-linecap:round;stroke-linejoin:round;stroke-dasharray:none;stroke-opacity:1"
       d="m -324.64742,497.27277 9.8055,-22.20657 7.49832,-10.67069"
       id="path34" /><path
       style="fill:none;fill-opacity:1;stroke:#1a1a1a;stroke-width:9;stroke-linecap:round;stroke-linejoin:round;stroke-dasharray:none;stroke-opacity:1"
       d="m -282.82985,401.81336 -10.38229,43.83635 15.57344,12.97786"
       id="path35" /><path
       style="fill:#fdc491;fill-opacity:1;stroke:#1a1a1a;stroke-width:9;stroke-linecap:round;stroke-linejoin:round;stroke-dasharray:none;stroke-opacity:1"
       d="m -364.44621,475.0662 -25.37894,-19.89939 -10.09389,-42.68276 20.18779,-27.39772 z"
       id="path36" /><path
       style="fill:#3d3e3d;fill-opacity:1;stroke:#1a1a1a;stroke-width:6;stroke-linecap:round;stroke-linejoin:round;stroke-dasharray:none;stroke-opacity:1"
       d="m -173.10367,343.3831 17.5,14.75 -16.75,-6.25 21.25,28.25 -9,-2.25 1.5,47.75 13.75,-36.75 13,-5 1,-35 z"
       id="path121" /><path
       style="fill:#fdc491;fill-opacity:1;stroke:#1a1a1a;stroke-width:9;stroke-linecap:round;stroke-linejoin:round;stroke-dasharray:none;stroke-opacity:1"
       d="m -156.22356,417.3868 -3.4608,-36.04963 36.91489,12.97787 2.88391,28.5513 -19.3226,42.10597 -25.0905,10.38229 z"
       id="path37"
       sodipodi:nodetypes="ccccccc" /><path
       style="fill:#fefefe;fill-opacity:1;stroke:#1a1a1a;stroke-width:3;stroke-linecap:round;stroke-linejoin:round;stroke-dasharray:none;stroke-opacity:1"
       d="m -349.77008,398.64898 17.33384,10.4003 27.12235,-4.4864 8.76889,-8.1571 -18.55741,-8.36103 c 0,0 -33.03625,8.97281 -34.66767,10.60423 z"
       id="path38" /><path
       style="fill:#fefefe;fill-opacity:1;stroke:#1a1a1a;stroke-width:3;stroke-linecap:round;stroke-linejoin:round;stroke-dasharray:none;stroke-opacity:1"
       d="m -210.44216,406.71611 -22.9276,-2.45138 -10.9591,-8.36351 14.9967,-8.07512 22.4949,0.72099 13.6989,6.34474 z"
       id="path39" /><path
       style="fill:#1a1a1a;fill-opacity:1;stroke:#1a1a1a;stroke-width:3;stroke-linecap:round;stroke-linejoin:round;stroke-dasharray:none;stroke-opacity:1"
       d="m -244.16166,393.66427 11.8013,-12.9039 24.5137,0.5768 18.0249,9.9497 -12.8337,-1.29779 -27.9745,-2.30718 -8.0751,4.03756 z"
       id="path40"
       sodipodi:nodetypes="cccccccc" /><path
       style="fill:#1a1a1a;fill-opacity:1;stroke:#1a1a1a;stroke-width:3;stroke-linecap:round;stroke-linejoin:round;stroke-dasharray:none;stroke-opacity:1"
       d="m -345.12361,396.47801 29.99329,-9.0845 16.29443,7.49832 1.00939,-6.48893 -24.08115,-7.49833 -29.1281,11.82428 z"
       id="path41" /><path
       style="fill:#1a1a1a;fill-opacity:1;stroke:#1a1a1a;stroke-width:3;stroke-linecap:round;stroke-linejoin:round;stroke-dasharray:none;stroke-opacity:1"
       d="m -359.93776,371.48357 17.5,-4 49.25,10.75 4,-13 -55.25,-13.25 z"
       id="path42" /><path
       style="fill:#1a1a1a;fill-opacity:1;stroke:#1a1a1a;stroke-width:3;stroke-linecap:round;stroke-linejoin:round;stroke-dasharray:none;stroke-opacity:1"
       d="m -250.95186,376.73403 -2.1213,-13.43503 47.7297,-14.31891 23.1578,18.56155 -22.8042,-3.0052 z"
       id="path43" /><path
       style="fill:none;fill-opacity:1;stroke:#1a1a1a;stroke-width:3;stroke-linecap:round;stroke-linejoin:round;stroke-dasharray:none;stroke-opacity:1"
       d="m -283.65553,362.76867 1.23744,8.83884 -3.35876,3.88908"
       id="path44" /><path
       style="fill:none;fill-opacity:1;stroke:#1a1a1a;stroke-width:3;stroke-linecap:round;stroke-linejoin:round;stroke-dasharray:none;stroke-opacity:1"
       d="m -259.26036,361.35446 -2.1213,7.42462 5.1265,6.36396"
       id="path45" /><path
       style="fill:#fefefe;fill-opacity:1;stroke:#1a1a1a;stroke-width:9;stroke-linecap:round;stroke-linejoin:round;stroke-dasharray:none"
       d="m 558.43058,1129.1033 -18.13878,-119.6985 -22.432,-39.96985 c 0,0 -358.50455,3.6707 -358.09665,2.0393 0.4078,-1.6314 -12.78682,157.62905 -12.78682,157.62905 z"
       id="path46"
       sodipodi:nodetypes="cccscc" /><path
       style="fill:none;stroke:#ff00ff;stroke-width:9;stroke-linecap:round;stroke-linejoin:round;stroke-dasharray:none"
       d="m 527.3719,1007.033 -213.03175,14.6074 -157.8399,-9.7885"
       id="path47"
       sodipodi:nodetypes="ccc" /><path
       style="fill:#2a2b2a;fill-opacity:1;stroke:#1a1a1a;stroke-width:9;stroke-linecap:round;stroke-linejoin:round;stroke-dasharray:none"
       d="m 536.96578,1129.1033 -12.41068,-119.1539 -174.77265,11.145 -207.1904,-12.6436 -8.51065,120.6525 z"
       id="path48"
       sodipodi:nodetypes="cccccc" /><path
       style="fill:#2a2b2a;fill-opacity:1;stroke:#1a1a1a;stroke-width:9;stroke-linecap:round;stroke-linejoin:round;stroke-dasharray:none;stroke-opacity:1"
       d="m 523.1207,1008.4508 17.5378,-2.0392 -9.7885,-48.53475 -384.19935,-0.8157 2.4471,18.3535 -8.5649,30.99695 209.6374,14.6828 z"
       id="path49" /><path
       style="fill:none;stroke:#1a1a1a;stroke-width:9;stroke-linecap:round;stroke-linejoin:round;stroke-dasharray:none;stroke-opacity:1"
       d="m 165.02415,985.20315 150.4984,4.4864 187.20545,-6.9336"
       id="path50" /><path
       style="fill:#2a2b2a;fill-opacity:1;stroke:#1a1a1a;stroke-width:9;stroke-linecap:round;stroke-linejoin:round;stroke-dasharray:none;stroke-opacity:1"
       d="m 247.58925,985.74785 -32.3005,9.8054 -15.5734,12.97785 15.5734,36.0496 33.1657,-22.4949 40.664,-0.8652 50.4694,32.8772 c 0,0 24.22535,-37.78 23.937,-36.6264 -0.2884,1.1536 -37.78,-30.28165 -37.78,-30.28165 l -29.1281,-6.9215 z"
       id="path51" /><path
       style="fill:none;stroke:#1a1a1a;stroke-width:8.90945;stroke-linecap:round;stroke-linejoin:round;stroke-dasharray:none;stroke-opacity:1"
       d="m 231.12755,1006.4825 33.8867,-12.37755 30.6206,2.196 23.6799,12.57725"
       id="path52" /><path
       style="fill:#2a2b2a;fill-opacity:1;stroke:#1a1a1a;stroke-width:9;stroke-linecap:round;stroke-linejoin:round;stroke-dasharray:none;stroke-opacity:1"
       d="m 251.36155,1024.1275 -3.8746,-23.8595 9.7885,-22.22805 40.7855,-1.4275 -10.6042,29.16155 0.6118,18.9653 z"
       id="path53" /><path
       style="fill:#cdced2;fill-opacity:1;stroke:#1a1a1a;stroke-width:9;stroke-linecap:round;stroke-linejoin:round;stroke-dasharray:none;stroke-opacity:1"
       d="m 534.174,970.86245 23.8595,-6.3217 4.0785,-43.8444 -10.2639,-16.8533 -49.6043,-104.3998 -313.15655,87.9799 -2.1878,66.9081 342.45365,3.1536 z"
       id="path54"
       sodipodi:nodetypes="ccccccccc" /><path
       style="fill:#fefefe;fill-opacity:1;stroke:#1a1a1a;stroke-width:9;stroke-linecap:round;stroke-linejoin:round;stroke-dasharray:none;stroke-opacity:1"
       d="M 522.3462,954.75225 545.39,936.80655"
       id="path55" /><path
       style="fill:none;fill-opacity:1;stroke:#1a1a1a;stroke-width:9;stroke-linecap:round;stroke-linejoin:round;stroke-dasharray:none;stroke-opacity:1"
       d="m 171.74085,956.90805 81.9047,-188.6117 163.80955,-234.7552 17.8806,-22.4949"
       id="path56" /><path
       style="fill:none;fill-opacity:1;stroke:#1a1a1a;stroke-width:9;stroke-linecap:round;stroke-linejoin:round;stroke-dasharray:none;stroke-opacity:1"
       d="m 240.37935,952.87055 85.3655,-178.8062 106.70685,-163.8095 39.222,-69.2153"
       id="path57" /><path
       style="fill:#fefefe;fill-opacity:1;stroke:#1a1a1a;stroke-width:9;stroke-linecap:round;stroke-linejoin:round;stroke-dasharray:none;stroke-opacity:1"
       d="m 443.4108,803.48085 70.9457,40.9523 54.0786,72.5482 32.4405,-66.2034 19.0342,-110.7445 -6.3448,-102.0925 -28.2629,-51.3347 -108.4373,-39.7988 -28.5684,-28.0667 -13.7867,-6.1348 -7.2491,9.9762 -182.84375,261.8645 186.30445,30.57 z"
       id="path58"
       sodipodi:nodetypes="cccccccccccccc" /><path
       style="fill:none;fill-opacity:1;stroke:#1a1a1a;stroke-width:9;stroke-linecap:round;stroke-linejoin:round;stroke-dasharray:none;stroke-opacity:1"
       d="m 455.6022,712.89835 30.037,-64.8531 26.9185,-39.9698"
       id="path59"
       sodipodi:nodetypes="ccc" /><path
       style="fill:#adaeb3;fill-opacity:1;stroke:#acaeb4;stroke-width:9;stroke-linecap:round;stroke-linejoin:round;stroke-dasharray:none;stroke-opacity:1"
       d="m 510.5184,745.93045 42.009,25.6948"
       id="path60" /><path
       style="fill:#adaeb3;fill-opacity:1;stroke:#acaeb4;stroke-width:9;stroke-linecap:round;stroke-linejoin:round;stroke-dasharray:none;stroke-opacity:1"
       d="m 491.757,720.64345 65.2568,-36.2991"
       id="path61" /><path
       style="fill:#adaeb3;fill-opacity:1;stroke:#acaeb4;stroke-width:9;stroke-linecap:round;stroke-linejoin:round;stroke-dasharray:none;stroke-opacity:1"
       d="m 492.5728,663.54375 35.8912,-34.2599 39.5619,-21.6163"
       id="path62" /><path
       style="fill:#2a2b2a;fill-opacity:1;stroke:#1a1a1a;stroke-width:9;stroke-linecap:round;stroke-linejoin:round;stroke-dasharray:none;stroke-opacity:1"
       d="m 284.50405,595.25815 29.9933,8.9403 58.83295,-8.9403 -71.23405,102.9577 z"
       id="path73" /><path
       style="fill:#fefefe;fill-opacity:1;stroke:#1a1a1a;stroke-width:9;stroke-linecap:round;stroke-linejoin:round;stroke-dasharray:none;stroke-opacity:1"
       d="m 143.47795,810.40235 -46.213503,25.5259 -13.0618,2.6986 3.903,-120.5116 6.3448,6.9216 -7.4983,-33.4541 15.573403,-6.9215 28.8397,-73.2529 54.2186,-32.3004 62.8706,-21.9182 66.8082,-23.09669 c -6.43871,34.13313 -6.82224,31.9189 -19.3542,63.89379 l 3.3039,100.5174 -73.8297,116.5124 z"
       id="path64"
       sodipodi:nodetypes="ccccccccccccccc" /><path
       style="fill:#2a2b2a;fill-opacity:1;stroke:#1a1a1a;stroke-width:9;stroke-linecap:round;stroke-linejoin:round;stroke-dasharray:none;stroke-opacity:1"
       d="m 164.64165,957.70885 22.6213,-192.7472 29.9942,-100.3208 252.49995,2 v 118 l 42.7313,128.5216 17.0027,40.7713 z"
       id="path76"
       sodipodi:nodetypes="cccccccc" /><path
       style="fill:#fdc491;fill-opacity:1;stroke:#1a1a1a;stroke-width:9;stroke-linecap:round;stroke-linejoin:round;stroke-dasharray:none;stroke-opacity:1"
       d="m 313.52445,896.42895 -106.5781,-2.5271 -86.7935,13.077 -27.850103,-41.1064 -8.878,-30.5725 75.114803,-24.5206 41.1934,9.7885 z"
       id="path66"
       sodipodi:nodetypes="cccccccc" /><path
       style="fill:#fec28e;fill-opacity:1;stroke:#1a1a1a;stroke-width:9;stroke-linecap:round;stroke-linejoin:round;stroke-dasharray:none;stroke-opacity:1"
       d="m 369.8695,789.06095 27.1094,-35.1844 17.8806,-22.495 56.8142,-22.495 5.4795,20.7646 -51.9114,9.5171 53.6418,-9.2287 11.2475,20.4762 -57.9678,5.1912 57.6794,-5.1912 -1.7304,25.9557 -65.4661,7.21 47.8739,-5.1912 -2.3072,14.4199 -36.0496,8.9403 z"
       id="path67" /><path
       style="fill:none;fill-opacity:1;stroke:#1a1a1a;stroke-width:9;stroke-linecap:round;stroke-linejoin:round;stroke-dasharray:none;stroke-opacity:1"
       d="m 174.54035,776.68035 42.7585,-114.277"
       id="path68"
       sodipodi:nodetypes="cc" /><path
       style="fill:none;fill-opacity:1;stroke:#acaeb4;stroke-width:9;stroke-linecap:round;stroke-linejoin:round;stroke-dasharray:none;stroke-opacity:1"
       d="m 156.34235,769.90485 -34.6077,-63.4474"
       id="path70" /><path
       style="fill:none;fill-opacity:1;stroke:#acaeb4;stroke-width:9;stroke-linecap:round;stroke-linejoin:round;stroke-dasharray:none;stroke-opacity:1"
       d="M 147.75435,784.93045 98.726947,751.47635"
       id="path71" /><path
       style="fill:#e19360;fill-opacity:1;stroke:#1a1a1a;stroke-width:9;stroke-linecap:round;stroke-linejoin:round;stroke-dasharray:none;stroke-opacity:1"
       d="m 318.70743,533.8841 c 0,0 -19.86418,61.28495 -18.64068,62.91645 1.2236,1.6314 15.0891,8.4199 15.0891,8.4199 l 61.17825,-8.9728 55.4683,-77.9003 z"
       id="path74"
       sodipodi:nodetypes="cscccc" /><path
       style="fill:#fdc491;fill-opacity:1;stroke:#1a1a1a;stroke-width:9;stroke-linecap:round;stroke-linejoin:round;stroke-dasharray:none;stroke-opacity:1"
       d="m 549.6725,891.94255 -67.2961,38.3384 -29.7734,6.3217 -112.77185,-27.938 -91.7674,-52.2055 -54.8565,-39.358 -50.574,-5.3022 59.3429,-58.7311 144.7885,34.8716 101.96365,17.1299 66.4234,42.1984 z"
       id="path65"
       sodipodi:nodetypes="cccccccccccc" /><path
       style="fill:#2a2b2a;fill-opacity:1;stroke:#1a1a1a;stroke-width:9;stroke-linecap:round;stroke-linejoin:round;stroke-dasharray:none;stroke-opacity:1"
       d="m 201.08895,713.97795 -4.9332,-66.2929"
       id="path77"
       sodipodi:nodetypes="cc" /><path
       style="fill:#2a2b2a;fill-opacity:1;stroke:#1a1a1a;stroke-width:9;stroke-linecap:round;stroke-linejoin:round;stroke-dasharray:none;stroke-opacity:1"
       d="m 264.33765,689.30125 56.5685,-6.364 53.03295,4.2427"
       id="path78" /><path
       style="fill:#2a2b2a;fill-opacity:1;stroke:#1a1a1a;stroke-width:9;stroke-linecap:round;stroke-linejoin:round;stroke-dasharray:none;stroke-opacity:1"
       d="m 215.54725,661.01695 -3.5355,-90.1561 35.0017,-12.7279 c 0,0 22.2739,109.248 18.7384,107.8338 -3.5356,-1.4142 -50.2046,-4.9498 -50.2046,-4.9498 z"
       id="path79"
       sodipodi:nodetypes="cccsc" /><path
       style="fill:#2a2b2a;fill-opacity:1;stroke:#1a1a1a;stroke-width:9;stroke-linecap:round;stroke-linejoin:round;stroke-dasharray:none;stroke-opacity:1"
       d="m 435.5889,663.47795 38,-113.5 45.5,17 -50,100 z"
       id="path80" /><path
       style="fill:#2a2b2a;fill-opacity:1;stroke:#1a1a1a;stroke-width:9;stroke-linecap:round;stroke-linejoin:round;stroke-dasharray:none;stroke-opacity:1"
       d="m 390.0889,666.97795 76.5,-132"
       id="path81" /><path
       style="fill:#1a1a1a;fill-opacity:1;stroke:#1a1a1a;stroke-width:3.58696;stroke-linecap:round;stroke-linejoin:round;stroke-dasharray:none;stroke-opacity:1"
       d="m -321.63628,407.08959 -7.17392,-7.02446 6.72555,-10.0136 11.0598,6.42664 z"
       id="path82" /><path
       style="fill:#1a1a1a;fill-opacity:1;stroke:#1a1a1a;stroke-width:3.43479;stroke-linecap:round;stroke-linejoin:round;stroke-dasharray:none;stroke-opacity:1"
       d="m -219.01671,404.54068 -6.86957,-6.72646 6.44022,-9.58877 10.59059,6.15399 z"
       id="path83" /><path
       style="fill:#fdc491;fill-opacity:1;stroke:#1a1a1a;stroke-width:9;stroke-linecap:round;stroke-linejoin:round;stroke-dasharray:none;stroke-opacity:1"
       d="m 274.32811,530.78191 -18.76133,-47.31118 -20.39275,-138.67069 103.59517,-28.142 113.38364,15.49849 8.565,99.51662 -6.1178,59.13897 -13.0514,28.95771 -59.3353,32.04834 -54.94139,3.28641 c 0,0 -34.20736,-9.12297 -52.94384,-24.32267 z"
       id="path84"
       sodipodi:nodetypes="ccccccccccc" /><path
       style="fill:#fdc491;fill-opacity:1;stroke:#1a1a1a;stroke-width:9;stroke-linecap:round;stroke-linejoin:round;stroke-dasharray:none;stroke-opacity:1"
       d="m 254.55379,486.0662 -25.37894,-19.89939 -10.09389,-42.68276 20.18779,-27.39772 z"
       id="path89"
       sodipodi:nodetypes="ccccc" /><path
       style="fill:#fdc491;fill-opacity:1;stroke:#1a1a1a;stroke-width:9;stroke-linecap:round;stroke-linejoin:round;stroke-dasharray:none;stroke-opacity:1"
       d="m 462.77644,428.3868 -3.4608,-36.04963 36.91489,12.97787 2.88391,28.5513 -19.3226,42.10597 -25.0905,10.38229 z"
       id="path90"
       sodipodi:nodetypes="ccccccc" /><path
       style="fill:#eb7d6a;fill-opacity:1;stroke:none;stroke-width:6;stroke-linecap:round;stroke-linejoin:round;stroke-dasharray:none;stroke-opacity:1"
       d="m 332.07388,512.53945 10.375,3.875 15.72183,1.86244 28.65317,-8.73744 -14.75,-8.125 -14.5,-0.125 -3.125,2.375 -8.5,-2 -15.625,9.375 z"
       id="path111"
       sodipodi:nodetypes="cccccccccc" /><path
       style="fill:none;fill-opacity:1;stroke:#1a1a1a;stroke-width:6;stroke-linecap:round;stroke-linejoin:round;stroke-dasharray:none;stroke-opacity:1"
       d="m 325.50238,507.22129 32.14993,3.69469 28.73959,-6.94239"
       id="path101"
       sodipodi:nodetypes="ccc" /><path
       style="fill:none;fill-opacity:1;stroke:#1a1a1a;stroke-width:6;stroke-linecap:round;stroke-linejoin:round;stroke-dasharray:none;stroke-opacity:1"
       d="m 394.6419,485.97359 8.5,12.5 3,12"
       id="path102" /><path
       style="fill:none;fill-opacity:1;stroke:#1a1a1a;stroke-width:6;stroke-linecap:round;stroke-linejoin:round;stroke-dasharray:none;stroke-opacity:1"
       d="m 308.8919,513.72359 0.25,-9.75 7.75,-10.25"
       id="path103" /><path
       style="fill:none;fill-opacity:1;stroke:#1a1a1a;stroke-width:6;stroke-linecap:round;stroke-linejoin:round;stroke-dasharray:none;stroke-opacity:1"
       d="m 338.93741,427.31819 -10.25305,34.6483 14.49569,11.6672"
       id="path104" /><path
       style="fill:#fefefe;fill-opacity:1;stroke:#1a1a1a;stroke-width:3;stroke-linecap:round;stroke-linejoin:round;stroke-dasharray:none;stroke-opacity:1"
       d="m 380.30316,410.17089 8.48528,8.3085 19.79899,4.0659 18.9151,-6.8943 4.94975,-6.0104 -8.3085,-8.6621 -22.09709,-3.3587 z"
       id="path105" /><path
       style="fill:#fefefe;fill-opacity:1;stroke:#1a1a1a;stroke-width:3;stroke-linecap:round;stroke-linejoin:round;stroke-dasharray:none;stroke-opacity:1"
       d="m 277.3919,416.22359 10.25,9.625 15.875,0.375 15.125,-3.25 4.875,-12 -19.875,-8.25 -18.875,4.125 z"
       id="path106" /><path
       style="fill:#1a1a1a;fill-opacity:1;stroke:#1a1a1a;stroke-width:3;stroke-linecap:round;stroke-linejoin:round;stroke-dasharray:none;stroke-opacity:1"
       d="m 276.97718,415.47419 -13.7002,-5.922 8.75045,-0.6187 9.45755,-9.6344 21.65515,-4.7729 17.4125,8.8388 3.09359,8.0433 -20.4177,-8.7504 -18.56156,3.8007 z"
       id="path107" /><path
       style="fill:#1a1a1a;fill-opacity:1;stroke:#1a1a1a;stroke-width:3;stroke-linecap:round;stroke-linejoin:round;stroke-dasharray:none;stroke-opacity:1"
       d="m 379.0169,409.84859 3.375,-10.375 10.75,-6.625 8.875,-3 29.875,5.75 3.83075,5.2031 8.39689,-0.4419 -11.40209,9.7227 -8.75045,-9.9879 -22.36225,-3.4471 z"
       id="path108" /><path
       style="fill:#1a1a1a;fill-opacity:1;stroke:#1a1a1a;stroke-width:3;stroke-linecap:round;stroke-linejoin:round;stroke-dasharray:none;stroke-opacity:1"
       d="m 369.16622,380.20729 1.41422,-5.4801 31.46625,-10.5182 15.02602,1.0606 22.45064,15.026 -22.0087,-7.4246 -12.63953,-0.2651 -27.57717,10.0762 -4.86136,0.7071 z"
       id="path109" /><path
       style="fill:#1a1a1a;fill-opacity:1;stroke:#1a1a1a;stroke-width:3;stroke-linecap:round;stroke-linejoin:round;stroke-dasharray:none;stroke-opacity:1"
       d="m 323.73377,384.44999 -1.41422,-5.4801 -31.46625,-10.5182 -15.02602,1.0606 -22.45064,15.026 22.0087,-7.4246 12.63953,-0.2651 27.57717,10.0762 4.86136,0.7071 z"
       id="path110" /><path
       style="fill:#3d3e3d;fill-opacity:1;stroke:#1a1a1a;stroke-width:6;stroke-linecap:round;stroke-linejoin:round;stroke-dasharray:none;stroke-opacity:1"
       d="m 218.39633,374.8831 -10.75,27.5 8.75,28.25 4.25,-31.75 9.5,-16.5 -10.25,25 9.75,17.75 4,-23.25 25.5,-24.25 50.75,-39.25 10,-18.25 -64.5,16.25 z"
       id="path114"
       sodipodi:nodetypes="ccccccccccccc" /><path
       style="fill:#fefefe;fill-opacity:1;stroke:#1a1a1a;stroke-width:9;stroke-linecap:round;stroke-linejoin:round;stroke-dasharray:none;stroke-opacity:1"
       d="m 216.14633,372.6331 23.75,-112 60.5,-26.5 85.5,-11.25 77.75,24.25 39.0199,26.9315 61.16467,110.6622 -52.14907,44.1942 -28.7855,-38.2879 -58.7189,-46.2114 -56.215,-19.4454 -51.9724,-3.5355 -62.9325,16.617 z"
       id="path115" /><path
       style="fill:#fefefe;fill-opacity:1;stroke:#1a1a1a;stroke-width:9;stroke-linecap:round;stroke-linejoin:round;stroke-dasharray:none;stroke-opacity:1"
       d="m 523.87948,422.7339 c 0,0 42.07282,53.9168 39.42122,54.4472 -2.6517,0.5303 -31.64312,6.1872 -31.64312,6.1872 l -32.7037,-14.8493 13.7886,-40.4818 z"
       id="path116" /><path
       style="fill:#fefefe;fill-opacity:1;stroke:#1a1a1a;stroke-width:9;stroke-linecap:round;stroke-linejoin:round;stroke-dasharray:none;stroke-opacity:1"
       d="m 512.03543,442.5328 13.435,11.844 -11.3137,-7.9549 -1.9445,4.5962 -4.0659,-2.2981"
       id="path117" /><path
       style="fill:#fefefe;fill-opacity:1;stroke:#1a1a1a;stroke-width:9;stroke-linecap:round;stroke-linejoin:round;stroke-dasharray:none;stroke-opacity:1"
       d="m -397.24162,345.2293 115.2584,-30.4055 156.97771,34.6482 -17.32412,-108.5409 -123.74368,-31.4663 -119.8546,30.4056 z"
       id="path118" /><path
       style="fill:#fefefe;fill-opacity:1;stroke:#1a1a1a;stroke-width:9;stroke-linecap:round;stroke-linejoin:round;stroke-dasharray:none;stroke-opacity:1"
       d="m -274.55859,234.2136 -4.24265,49.851"
       id="path119" /><path
       style="fill:#3d3e3d;fill-opacity:1;stroke:#1a1a1a;stroke-width:6;stroke-linecap:round;stroke-linejoin:round;stroke-dasharray:none;stroke-opacity:1"
       d="m -394.94352,349.6488 -3.53554,16.4402 6.36396,-7.6014 2.82843,31.1127 15.9099,29.5217 -4.41941,-39.0676 -4.5962,3.5355 13.78858,-25.8094 -9.89949,5.1265 11.84404,-22.6274 z"
       id="path120" /><path
       style="fill:#3d3e3d;fill-opacity:1;stroke:#1a1a1a;stroke-width:6;stroke-linecap:round;stroke-linejoin:round;stroke-dasharray:none;stroke-opacity:1"
       d="m 418.89633,349.1331 24.5,47.5 26.75,18 23,-7.5 -36.5,-38.5 z"
       id="path122" /><path
       style="fill:#3d3e3d;fill-opacity:1;stroke:#1a1a1a;stroke-width:6;stroke-linecap:round;stroke-linejoin:round;stroke-dasharray:none;stroke-opacity:1"
       d="m 440.64633,523.6331 3.25,15.75 26,-10.5 -3.75,11.25 26.25,-1.75 6.75,-19 12,-13.5 -2.5,-10.75 5.75,11.75 -9.25,19.25 19.5,-18 -26.75,-40 6,-28.25 -42.25,38.75 z"
       id="path123"
       sodipodi:nodetypes="ccccccccccccccc" /><path
       style="fill:#1a1a1a;fill-opacity:1;stroke:#1a1a1a;stroke-width:4.39977;stroke-linecap:round;stroke-linejoin:round;stroke-dasharray:none;stroke-opacity:1"
       d="m 402.63084,416.86295 5.68982,1.49698 4.68053,-2.01551 6.22221,-7.64813 -7.77776,-6.09258 -9.85843,-0.56859 -4.40081,6.7908 z"
       id="path125"
       sodipodi:nodetypes="cccccccc" /><path
       style="fill:#1a1a1a;fill-opacity:1;stroke:#1a1a1a;stroke-width:4.39977;stroke-linecap:round;stroke-linejoin:round;stroke-dasharray:none;stroke-opacity:1"
       d="m 296.56482,421.63592 5.68982,1.49698 4.68053,-2.01551 6.22221,-7.64813 -7.77776,-6.09258 -9.85843,-0.56859 -4.40081,6.7908 z"
       id="path126"
       sodipodi:nodetypes="cccccccc" /></g></svg>
