<?xml version="1.0" encoding="UTF-8" standalone="no"?>
<!-- Created with Inkscape (http://www.inkscape.org/) -->

<svg
   width="557.81268"
   height="556.18127"
   viewBox="0 0 557.81268 556.18127"
   version="1.1"
   id="svg1"
   inkscape:version="1.4.3 (0d15f75042, 2025-12-25)"
   xml:space="preserve"
   sodipodi:docname="ui_buttons.svg"
   inkscape:export-filename="button.webp"
   inkscape:export-xdpi="96"
   inkscape:export-ydpi="96"
   xmlns:inkscape="http://www.inkscape.org/namespaces/inkscape"
   xmlns:sodipodi="http://sodipodi.sourceforge.net/DTD/sodipodi-0.dtd"
   xmlns="http://www.w3.org/2000/svg"
   xmlns:svg="http://www.w3.org/2000/svg"><sodipodi:namedview
     id="namedview1"
     pagecolor="#3a3a3a"
     bordercolor="#a6a6a6"
     borderopacity="1"
     inkscape:showpageshadow="0"
     inkscape:pageopacity="0"
     inkscape:pagecheckerboard="1"
     inkscape:deskcolor="#1a1a1a"
     inkscape:document-units="px"
     guidecolor="#91a666"
     guideopacity="0.6"
     guidehicolor="#a66966"
     guidehiopacity="0.49803922"
     inkscape:zoom="0.8668605"
     inkscape:cx="246.86786"
     inkscape:cy="86.519111"
     inkscape:window-width="1432"
     inkscape:window-height="876"
     inkscape:window-x="0"
     inkscape:window-y="0"
     inkscape:window-maximized="1"
     inkscape:current-layer="layer1" /><defs
     id="defs1"><inkscape:path-effect
       effect="perspective-envelope"
       up_left_point="762.78421,355.0786"
       up_right_point="795.16421,359.27463"
       down_left_point="764.88222,392.85347"
       down_right_point="794.26507,403.94295"
       id="path-effect72"
       is_visible="true"
       lpeversion="1"
       deform_type="perspective"
       horizontal_mirror="false"
       vertical_mirror="false"
       overflow_perspective="false" /><clipPath
       clipPathUnits="userSpaceOnUse"
       id="clipPath1397"><path
         style="fill:#545a78;fill-opacity:1;stroke:#1a1a1a;stroke-width:47.6348;stroke-linecap:round;stroke-linejoin:round;stroke-dasharray:none;stroke-opacity:1"
         d="M 1323.596,-16.160101 V 995.39713 H 577.70436 V -14.01733 Z"
         id="path1397" /></clipPath></defs><g
     inkscape:label="Layer 1"
     inkscape:groupmode="layer"
     id="layer1"
     transform="translate(466.10365,-65.63307)"><rect
       style="fill:#b4b4b4;fill-opacity:0.623529;stroke:#1a1a1a;stroke-width:8.84885;stroke-linecap:round;stroke-linejoin:round;stroke-dasharray:none"
       id="rect1"
       width="247.15115"
       height="247.15115"
       x="-461.67923"
       y="70.057495"
       ry="10.885338" /><g
       id="g6"
       transform="matrix(0.83083336,0,0,0.83083336,-57.195867,36.590024)"><rect
         style="fill:#1a1a1a;fill-opacity:1;stroke:#1a1a1a;stroke-width:3.23723;stroke-linecap:round;stroke-linejoin:round;stroke-dasharray:none"
         id="rect5"
         width="44.540119"
         height="183.54749"
         x="-416.61111"
         y="97.244965"
         ry="8.0840263" /><rect
         style="fill:#1a1a1a;fill-opacity:1;stroke:#1a1a1a;stroke-width:3.23723;stroke-linecap:round;stroke-linejoin:round;stroke-dasharray:none"
         id="rect6"
         width="44.540119"
         height="183.54749"
         x="-304.13629"
         y="97.244965"
         ry="8.0840263" /></g><rect
       style="fill:#b4b4b4;fill-opacity:0.623529;stroke:#1a1a1a;stroke-width:8.84885;stroke-linecap:round;stroke-linejoin:round;stroke-dasharray:none"
       id="rect1-3"
       width="247.15115"
       height="247.15115"
       x="-161.04347"
       y="70.057495"
       ry="10.885338"
       inkscape:export-filename="rect1-3.webp"
       inkscape:export-xdpi="96"
       inkscape:export-ydpi="96" /><path
       style="fill:#e3dbdb;stroke:#1a1a1a;stroke-width:16;stroke-linecap:round;stroke-linejoin:round;stroke-dasharray:none;stroke-opacity:1"
       d="M -406.61221,582.23431 -396.73674,416.93504 2.9843933,411.44439 21.103616,580.55716 Z"
       id="path1"
       inkscape:export-filename="button.webp"
       inkscape:export-xdpi="110.77364"
       inkscape:export-ydpi="110.77364" /><path
       style="fill:#1a1a1a;fill-opacity:1;stroke-width:0.729688"
       d="m -58.414827,284.63723 c -27.912805,-5.84393 -16.040388,-34.59969 -10.808649,-52.83313 4.411606,-14.73566 10.212428,-29.11776 13.36225,-44.19677 1.830838,-9.27833 -8.919282,-9.87569 -15.364521,-9.24903 -11.594626,2.45792 -2.212634,-13.8748 -2.166845,-13.89996 20.557411,-1.50641 41.213979,-1.52632 61.820878,-1.95024 8.2932384,-0.9931 -0.243658,15.57167 -0.243658,15.57167 0,0 -16.060154,52.95668 -23.67895,79.55542 1.716088,18.6931 26.346325,-20.30062 28.7603369,-23.05792 6.23869335,2.61487 12.8528481,8.12623 5.74124315,14.03477 C -13.649602,268.63211 -32.565267,289.04237 -58.414827,284.63723 Z m 30.28205,-138.62004 c -10.113468,-2.88937 -17.647233,-13.25989 -15.997978,-23.88097 0.445431,-15.34551 19.985153,-25.590802 32.784653,-16.96837 10.3442682,5.63384 13.6695583,19.61458 8.1328467,29.71055 -4.3195187,9.14007 -15.3061027,13.6564 -24.9195217,11.13879 z"
       id="path2"
       sodipodi:nodetypes="cccccccccccccccc" /></g></svg>
