<?xml version="1.0" encoding="UTF-8" standalone="no"?>
<!-- Created with Inkscape (http://www.inkscape.org/) -->

<svg
   width="1962.6014"
   height="540.98401"
   viewBox="0 0 1962.6014 540.98401"
   version="1.1"
   id="svg1"
   inkscape:version="1.4.3 (0d15f75042, 2025-12-25)"
   xml:space="preserve"
   sodipodi:docname="workspace.svg"
   inkscape:export-filename="workspace.webp"
   inkscape:export-xdpi="125.22155"
   inkscape:export-ydpi="125.22155"
   xmlns:inkscape="http://www.inkscape.org/namespaces/inkscape"
   xmlns:sodipodi="http://sodipodi.sourceforge.net/DTD/sodipodi-0.dtd"
   xmlns="http://www.w3.org/2000/svg"
   xmlns:svg="http://www.w3.org/2000/svg"><sodipodi:namedview
     id="namedview1"
     pagecolor="#3a3a3a"
     bordercolor="#a6a6a6"
     borderopacity="1"
     inkscape:showpageshadow="0"
     inkscape:pageopacity="0"
     inkscape:pagecheckerboard="1"
     inkscape:deskcolor="#1a1a1a"
     inkscape:document-units="px"
     guidecolor="#91a666"
     guideopacity="0.6"
     guidehicolor="#a66966"
     guidehiopacity="0.49803922"
     inkscape:zoom="0.21671513"
     inkscape:cx="782.13275"
     inkscape:cy="-299.93291"
     inkscape:window-width="1432"
     inkscape:window-height="876"
     inkscape:window-x="0"
     inkscape:window-y="0"
     inkscape:window-maximized="1"
     inkscape:current-layer="layer1"><inkscape:page
       x="0"
       y="0"
       width="1962.6014"
       height="540.98401"
       id="page2"
       margin="0"
       bleed="0" /></sodipodi:namedview><defs
     id="defs1" /><g
     inkscape:label="Layer 1"
     inkscape:groupmode="layer"
     id="layer1"
     transform="translate(185.0249,-586.99997)"><path
       style="fill:#212121;fill-opacity:1;stroke:#1a1a1a;stroke-width:9;stroke-linecap:round;stroke-linejoin:round;stroke-dasharray:none"
       d="m -179.3713,942.83842 1952.4479,2.88397 v 40.95243 H -180.5249 Z"
       id="path1"
       sodipodi:nodetypes="ccccc" /><g
       id="g13"
       transform="translate(1520.3806,1632.3617)"><rect
         style="fill:#5a301e;fill-opacity:1;stroke:#1a1a1a;stroke-width:7;stroke-linecap:round;stroke-linejoin:round;stroke-dasharray:none;stroke-opacity:1"
         id="rect13"
         width="1953.5619"
         height="138.59767"
         x="-1701.0337"
         y="-646.47534"
         ry="2.3849943" /><rect
         style="fill:#5a301e;fill-opacity:1;stroke:#431e0b;stroke-width:5;stroke-linecap:round;stroke-linejoin:round;stroke-opacity:1"
         id="rect1"
         width="1947.0184"
         height="131.40652"
         x="-1698.0293"
         y="-642.74316"
         ry="2.3698335" /><path
         style="fill:#000000;fill-opacity:0;stroke:#431e0b;stroke-width:5;stroke-linecap:round;stroke-linejoin:round;stroke-opacity:1"
         d="m -1697.8328,-564.52965 249.8939,-14.86869 139.5842,-6.92153 109.5908,1.73038 260.67629,14.91275 c 0,0 203.92749,-6.52568 210.45317,-6.52568 6.52568,0 170.48338,-8.97281 170.48338,-8.97281 l 193.32327,-6.52568 146.01208,21.20846 151.72205,-0.81571 166.40484,-4.07855 148.40124,-9.73904"
         id="path2"
         sodipodi:nodetypes="cccccscccccc" /><path
         style="fill:#000000;fill-opacity:0;stroke:#431e0b;stroke-width:5;stroke-linecap:round;stroke-linejoin:round;stroke-opacity:1"
         d="m 246.98204,-564.10672 -123.83098,10.74418 -130.5136,9.78852 -39.96979,4.07855"
         id="path3"
         sodipodi:nodetypes="cccc" /><path
         style="fill:#000000;fill-opacity:0;stroke:#431e0b;stroke-width:5;stroke-linecap:round;stroke-linejoin:round;stroke-opacity:1"
         d="m 138.64955,-563.96677 c -3.26284,1.63142 -205.55892,13.86707 -209.63747,13.86707 -4.07855,0 -138.67069,-4.07855 -138.67069,-4.07855 l -233.29305,-15.49849 -184.35045,10.60423 -101.14804,8.97281 -159.06345,8.97281"
         id="path4" /><path
         style="fill:#000000;fill-opacity:0;stroke:#431e0b;stroke-width:5;stroke-linecap:round;stroke-linejoin:round;stroke-opacity:1"
         d="m -698.26888,-568.04532 -191.69185,14.68278 -192.50757,-5.70997 -200.6646,-2.44713 -225.9517,1.63142 -188.9018,27.34678"
         id="path5"
         sodipodi:nodetypes="cccccc" /><path
         style="fill:#000000;fill-opacity:0;stroke:#431e0b;stroke-width:5;stroke-linecap:round;stroke-linejoin:round;stroke-opacity:1"
         d="m -1624.4828,-511.37397 c 8.9728,2.44713 242.649,-29.75292 242.649,-29.75292 l 123.9879,-12.23565 186.7976,26.10272 165.58909,8.1571 38.33836,-4.07855"
         id="path6"
         sodipodi:nodetypes="cccccc" /><path
         style="fill:#000000;fill-opacity:0;stroke:#431e0b;stroke-width:5;stroke-linecap:round;stroke-linejoin:round;stroke-opacity:1"
         d="m -1492.8268,-511.87544 178.1273,-20.22579 104.9765,2.88397 118.2428,16.72703"
         id="path7"
         sodipodi:nodetypes="cccc" /><path
         style="fill:#000000;fill-opacity:0;stroke:#431e0b;stroke-width:5;stroke-linecap:round;stroke-linejoin:round;stroke-opacity:1"
         d="m -844.61231,-511.91344 200.72433,-20.18779 208.79945,-17.30382 197.84035,19.611 115.35881,9.8055 83.63514,0.57679"
         id="path8" /><path
         style="fill:#000000;fill-opacity:0;stroke:#431e0b;stroke-width:5;stroke-linecap:round;stroke-linejoin:round;stroke-opacity:1"
         d="m -4.22338,-510.75985 201.87792,-25.37894 50.75788,-4.61435"
         id="path9"
         sodipodi:nodetypes="ccc" /><path
         style="fill:#000000;fill-opacity:0;stroke:#431e0b;stroke-width:5;stroke-linecap:round;stroke-linejoin:round;stroke-opacity:1"
         d="m 247.95468,-600.36783 c -2.03927,0 -165.99698,9.07478 -165.99698,9.07478 l -47.31117,5.70997 -155.80061,0.40785 -218.20242,-17.94562 -97.06948,-8.56495 -95.03021,13.45921 -152.53777,2.44713 -110.5287,11.01209 -153.35347,-1.22357 -189.24477,-14.27492 -121.1329,-8.1571 c 0,0 -188.8368,11.82779 -191.6918,11.82779 -2.855,0 -150.4985,9.38067 -152.1299,9.38067 -1.6314,0 -94.2145,-0.40786 -94.2145,-0.40786"
         id="path10"
         sodipodi:nodetypes="ccccccccccccssc" /><path
         style="fill:#000000;fill-opacity:0;stroke:#431e0b;stroke-width:5;stroke-linecap:round;stroke-linejoin:round;stroke-opacity:1"
         d="m -1696.1953,-610.00341 202.6897,-4.57937 124.0107,-6.92153 120.55,-4.03755 143.0449,12.11267 109.59085,10.95909 140.73775,4.61435"
         id="path11"
         sodipodi:nodetypes="ccccccc" /><path
         style="fill:#000000;fill-opacity:0;stroke:#431e0b;stroke-width:5;stroke-linecap:round;stroke-linejoin:round;stroke-opacity:1"
         d="m 248.41242,-622.0811 c -3.46077,0.57679 -216.87457,15.57344 -216.87457,15.57344 l -120.54995,-6.34474 -145.35211,-10.38229 -154.5808,-9.8055 -43.69215,-8.94031"
         id="path12"
         sodipodi:nodetypes="cccccc" /><path
         style="fill:#000000;fill-opacity:0;stroke:#431e0b;stroke-width:5;stroke-linecap:round;stroke-linejoin:round;stroke-opacity:1"
         d="m 91.52443,-626.69545 154.00402,-13.84306"
         id="path13" /></g><path
       style="fill:#5a301e;fill-opacity:1;stroke:#431e0b;stroke-width:5;stroke-linecap:round;stroke-linejoin:round;stroke-opacity:1"
       d="m 643.50231,1016.6673 73.4139,5.71 c 0,0 69.3354,-11.4199 73.4139,-11.4199 4.0786,0 123.9879,-9.7886 123.9879,-9.7886 l 46.4955,-10.60418"
       id="path14" /><path
       style="fill:#5a301e;fill-opacity:1;stroke:#431e0b;stroke-width:5;stroke-linecap:round;stroke-linejoin:round;stroke-opacity:1"
       d="m 1037.494,991.80872 -70.94569,17.88058 -128.6251,9.8055 -100.3621,12.1127"
       id="path15" /><rect
       style="fill:#404145;fill-opacity:1;stroke:#1a1a1a;stroke-width:9;stroke-linecap:round;stroke-linejoin:round;stroke-dasharray:none;stroke-opacity:1"
       id="rect15"
       width="1952.4479"
       height="301.62271"
       x="-179.37131"
       y="644.09967"
       ry="2.3698335" /><path
       style="fill:#9eb06f;fill-opacity:1;stroke:#1a1a1a;stroke-width:8.47458;stroke-linecap:round;stroke-linejoin:round;stroke-opacity:1"
       d="m 1708.26,702.9428 -33.1813,-4.83895 -14.517,-19.70148 8.2954,-31.45323 1.901,-6.56715 -2.2467,-13.47997 9.8508,7.7769 32.8358,5.70307 29.7249,-11.75177 0.1729,11.92458 7.2585,12.78868 c 0,0 2.2466,28.68811 1.7281,29.37938 -0.5185,0.69129 -16.7636,17.10918 -16.7636,17.10918 z"
       id="path16" /><path
       style="fill:#9eb06f;fill-opacity:1;stroke:#1a1a1a;stroke-width:8.47458;stroke-linecap:round;stroke-linejoin:round;stroke-opacity:1"
       d="m 1771.3394,636.57995 -13.8256,0.34563 -8.9868,17.282 c 0,0 -3.1107,12.44304 -5.1846,12.44304 -2.0737,0 -11.0605,-4.49332 -11.0605,-4.49332 l 0.6913,-20.7384 7.9497,-12.78868 26.6144,-7.25843 z"
       id="path19" /><path
       style="fill:#7f9150;fill-opacity:1;stroke:#1a1a1a;stroke-width:8.47458;stroke-linecap:round;stroke-linejoin:round;stroke-opacity:1"
       d="m 1668.5114,626.90202 18.3566,5.75227 24.33,7.7277 25.6507,-12.86021 -18.819,-9.65397 -25.7848,-5.74349 z"
       id="path20"
       sodipodi:nodetypes="ccccccc" /><path
       style="fill:#7f9150;fill-opacity:1;stroke:#1a1a1a;stroke-width:8.47458;stroke-linecap:round;stroke-linejoin:round;stroke-opacity:1"
       d="m 1702.6802,619.50547 -8.1876,-8.30975 8.3098,-10.14278 8.0652,8.43195 z"
       id="path21" /><g
       id="g23"
       transform="translate(55.372229,-5.578595)"><path
         style="fill:#b3a292;fill-opacity:1;stroke:#1a1a1a;stroke-width:8.47458;stroke-linecap:round;stroke-linejoin:round;stroke-opacity:1"
         d="m 1562.4306,621.56132 6.1101,1.46642 -5.8656,12.95343 12.7089,21.50758 -1.4664,34.46101 -17.3527,18.85372 c 0,0 -43.2595,3.14268 -44.2371,3.14268 -0.9777,0 -24.4406,-3.14268 -24.4406,-3.14268 l -10.2649,-22.76417 -2.9329,-30.30615 13.4422,-23.70723 -5.1323,-9.28736 4.8879,-4.64368 6.599,12.39087 17.3527,1.78458 34.9499,1.22203 10.0205,-6.35452 z"
         id="path17" /><path
         style="fill:#b2a191;fill-opacity:1;stroke:#1a1a1a;stroke-width:8.47458;stroke-linecap:round;stroke-linejoin:round;stroke-opacity:1"
         d="m 1456.3704,648.74653 13.8256,0.34563 8.9868,17.282 c 0,0 3.1107,12.44304 5.1846,12.44304 2.0737,0 11.0605,-4.49332 11.0605,-4.49332 l -0.6913,-20.7384 -7.9497,-12.78868 -26.6144,-7.25843 z"
         id="path18" /><path
         style="fill:#b1866f;fill-opacity:1;stroke:#1a1a1a;stroke-width:8.47458;stroke-linecap:round;stroke-linejoin:round;stroke-opacity:1"
         d="m 1491.1867,626.29032 -3.2995,-6.19543 37.1495,-9.81568 43.0165,7.06663 -11.2439,11.79201 -10.0205,6.35452 -52.3026,-3.00661 z"
         id="path22"
         sodipodi:nodetypes="cccccccc" /><path
         style="fill:#b1866f;fill-opacity:1;stroke:#1a1a1a;stroke-width:8.47458;stroke-linecap:round;stroke-linejoin:round;stroke-opacity:1"
         d="m 1527.9701,615.2682 -8.1876,-8.30975 8.3098,-10.14278 8.0653,8.43195 z"
         id="path23" /></g><path
       style="fill:#9eb06f;fill-opacity:1;stroke:#1a1a1a;stroke-width:5;stroke-linecap:round;stroke-linejoin:round;stroke-opacity:1"
       d="m -79.005799,691.69283 -47.719101,-0.20392 -14.071,-14.88671 11.8278,-13.25529 11.216,3.6707 27.734201,1.83534 17.7417,-5.50604 8.7689,15.49849 z"
       id="path24" /><path
       style="fill:#9eb06f;fill-opacity:1;stroke:#1a1a1a;stroke-width:3.66714;stroke-linecap:round;stroke-linejoin:round;stroke-opacity:1"
       d="m -124.2873,677.30054 16.1531,4.18785 15.405201,-0.29914 12.7132,-3.44001"
       id="path25" /><path
       style="fill:#d3cfc5;fill-opacity:1;stroke:#1a1a1a;stroke-width:5;stroke-linecap:round;stroke-linejoin:round;stroke-opacity:1"
       d="m 6.9533706,691.69283 -47.7191696,-0.20392 -14.071,-14.88671 11.8278,-13.25529 11.216,3.6707 27.7342696,1.83534 17.7417004,-5.50604 8.7689,15.49849 z"
       id="path26" /><path
       style="fill:#d3cfc5;fill-opacity:1;stroke:#1a1a1a;stroke-width:3.66714;stroke-linecap:round;stroke-linejoin:round;stroke-opacity:1"
       d="m -38.328199,677.30054 16.15317,4.18785 15.4051996,-0.29914 12.7132,-3.44001"
       id="path27" /><g
       id="g32"
       transform="translate(1294.6726,1383.172)"><path
         style="fill:#545a78;fill-opacity:1;stroke:#1a1a1a;stroke-width:4;stroke-linecap:round;stroke-linejoin:round;stroke-dasharray:none;stroke-opacity:1"
         d="m -1230.6317,-704.13005 7.5815,-7.5032 9.8665,-10.37742 14.4198,0.57679 -2.0187,16.87123 c 0,0 -11.8243,9.9497 -12.2569,10.52649 -0.4326,0.5768 -20.6204,-0.43259 -20.6204,-0.43259 z"
         id="path30" /><path
         style="fill:#545a78;fill-opacity:1;stroke:#1a1a1a;stroke-width:4;stroke-linecap:round;stroke-linejoin:round;stroke-dasharray:none;stroke-opacity:1"
         d="m -1230.6317,-704.13005 c 0,0 17.5922,0.57679 16.8712,0.86519 -0.721,0.28839 0.721,9.2287 0.721,9.2287 l -20.6204,-0.43259 z"
         id="path31" /><path
         style="fill:#545a78;fill-opacity:1;stroke:#1a1a1a;stroke-width:4;stroke-linecap:round;stroke-linejoin:round;stroke-dasharray:none;stroke-opacity:1"
         d="m -1213.7605,-703.26486 7.0963,-3.86809 7.9003,-14.30093"
         id="path32"
         sodipodi:nodetypes="ccc" /><path
         style="fill:#cbb98d;fill-opacity:1;stroke:#1a1a1a;stroke-width:4;stroke-linecap:round;stroke-linejoin:round;stroke-dasharray:none;stroke-opacity:1"
         d="m -1080.429,-693.2568 c -8.9728,-0.81571 -161.1027,-20.8006 -161.1027,-20.8006 l 7.3414,-4.07855 153.9652,9.17673 4.3844,9.48263 z"
         id="path28"
         sodipodi:nodetypes="cccccc" /><path
         style="fill:#d3cfc5;fill-opacity:1;stroke:#1a1a1a;stroke-width:3;stroke-linecap:round;stroke-linejoin:round;stroke-dasharray:none;stroke-opacity:1"
         d="m -1075.8407,-699.47659 -162.0203,-16.62008"
         id="path29"
         sodipodi:nodetypes="cc" /></g></g></svg>
